<svg width="1440" height="1024" viewBox="0 0 1440 1024" fill="none" xmlns="http://www.w3.org/2000/svg">
<rect width="1440" height="1024" fill="#36583E"/>
<path d="M148 -14H84.9995V832H148V-14Z" fill="#DCD0BE"/>
<path d="M242 863C202.235 863 170 830.765 170 791" stroke="#DCD0BE" stroke-width="190"/>
<path d="M85 534L85 537.5L100.5 537.5L100.5 506L68 506L68 524L75 524C80.5228 524 85 528.477 85 534Z" fill="#DCD0BE"/>
<path d="M246 -14H183V773H246V-14Z" fill="#DCD0BE"/>
<path d="M261 838C221.235 838 189 805.765 189 766" stroke="#DCD0BE" stroke-width="113"/>
<path d="M361 638L361 512L168 512L168 648L351 648C356.523 648 361 643.523 361 638Z" fill="#DCD0BE"/>
<path d="M371 524L374.5 524L374.5 519L343 519L343 541.5L361 541.5L361 534C361 528.477 365.477 524 371 524Z" fill="#DCD0BE"/>
<path d="M778 429L778 366L-40 366L-40 429L778 429Z" fill="#DCD0BE"/>
<path d="M251.114 335.798H248.076V363.443H251.114V335.798Z" fill="#546E7A"/>
<path d="M356.227 148.354H336.48V360.405H356.227V148.354Z" fill="#FF7043"/>
<path d="M356.227 284.152H336.48V360.101H356.227V284.152Z" fill="#FFB74D"/>
<path d="M340.126 148.354H336.48V360.405H340.126V148.354Z" fill="#F4511E"/>
<path d="M340.126 284.152H336.48V360.101H340.126V284.152Z" fill="#FB8C00"/>
<path d="M351.671 152H344.684V157.772H351.671V152Z" fill="#FDD835"/>
<path d="M352.279 158.684H343.773V151.392H352.279V158.684ZM345.292 157.165H350.456V152.911H345.292V157.165Z" fill="#546E7A"/>
<path d="M362 153.519H356.228V157.772H362V153.519Z" fill="#00838F"/>
<path d="M351.671 164.456H344.684V170.228H351.671V164.456Z" fill="#4DD0E1"/>
<path d="M352.279 170.835H343.773V163.544H352.279V170.835ZM345.292 169.316H350.456V165.063H345.292V169.316Z" fill="#546E7A"/>
<path d="M362 165.671H356.228V169.924H362V165.671Z" fill="#00838F"/>
<path d="M351.671 176.607H344.684V182.379H351.671V176.607Z" fill="#4DD0E1"/>
<path d="M352.279 183.291H343.773V176H352.279V183.291ZM345.292 181.772H350.456V177.519H345.292V181.772Z" fill="#546E7A"/>
<path d="M362 178.127H356.228V182.38H362V178.127Z" fill="#00838F"/>
<path d="M351.671 189.063H344.684V194.835H351.671V189.063Z" fill="#4DD0E1"/>
<path d="M352.279 195.747H343.773V188.456H352.279V195.747ZM345.292 193.924H350.456V189.671H345.292V193.924Z" fill="#546E7A"/>
<path d="M362 190.582H356.228V194.835H362V190.582Z" fill="#00838F"/>
<path d="M351.671 201.215H344.684V206.987H351.671V201.215Z" fill="#4DD0E1"/>
<path d="M352.279 207.899H343.773V200.607H352.279V207.899ZM345.292 206.38H350.456V202.126H345.292V206.38Z" fill="#546E7A"/>
<path d="M362 202.734H356.228V206.987H362V202.734Z" fill="#00838F"/>
<path d="M351.671 213.671H344.684V219.443H351.671V213.671Z" fill="#FDD835"/>
<path d="M352.279 220.355H343.773V213.063H352.279V220.355ZM345.292 218.836H350.456V214.582H345.292V218.836Z" fill="#546E7A"/>
<path d="M362 215.19H356.228V219.443H362V215.19Z" fill="#00838F"/>
<path d="M351.671 226.127H344.684V231.899H351.671V226.127Z" fill="#FDD835"/>
<path d="M352.279 232.506H343.773V225.215H352.279V232.506ZM345.292 230.987H350.456V226.734H345.292V230.987Z" fill="#546E7A"/>
<path d="M362 227.342H356.228V231.595H362V227.342Z" fill="#00838F"/>
<path d="M351.671 238.278H344.684V244.051H351.671V238.278Z" fill="#4DD0E1"/>
<path d="M352.279 244.962H343.773V237.671H352.279V244.962ZM345.292 243.443H350.456V239.19H345.292V243.443Z" fill="#546E7A"/>
<path d="M362 239.797H356.228V244.05H362V239.797Z" fill="#00838F"/>
<path d="M351.671 250.734H344.684V256.506H351.671V250.734Z" fill="#4DD0E1"/>
<path d="M352.279 257.418H343.773V250.127H352.279V257.418ZM345.292 255.899H350.456V251.646H345.292V255.899Z" fill="#546E7A"/>
<path d="M362 252.253H356.228V256.506H362V252.253Z" fill="#00838F"/>
<path d="M351.671 263.19H344.684V268.962H351.671V263.19Z" fill="#FDD835"/>
<path d="M352.279 269.57H343.773V262.278H352.279V269.57ZM345.292 268.051H350.456V263.797H345.292V268.051Z" fill="#546E7A"/>
<path d="M362 264.405H356.228V268.658H362V264.405Z" fill="#00838F"/>
<path d="M351.671 275.341H344.684V281.114H351.671V275.341Z" fill="#4DD0E1"/>
<path d="M352.279 282.025H343.773V274.734H352.279V282.025ZM345.292 280.506H350.456V276.253H345.292V280.506Z" fill="#546E7A"/>
<path d="M362 276.861H356.228V281.114H362V276.861Z" fill="#00838F"/>
<path d="M351.671 287.797H344.684V293.569H351.671V287.797Z" fill="#4DD0E1"/>
<path d="M352.279 294.481H343.773V287.19H352.279V294.481ZM345.292 292.658H350.456V288.405H345.292V292.658Z" fill="#546E7A"/>
<path d="M351.671 299.949H344.684V305.721H351.671V299.949Z" fill="#4DD0E1"/>
<path d="M352.279 306.633H343.773V299.342H352.279V306.633ZM345.292 305.114H350.456V300.861H345.292V305.114Z" fill="#546E7A"/>
<path d="M351.671 312.405H344.684V318.177H351.671V312.405Z" fill="#4DD0E1"/>
<path d="M352.279 319.089H343.773V311.798H352.279V319.089ZM345.292 317.57H350.456V313.317H345.292V317.57Z" fill="#546E7A"/>
<path d="M351.671 324.861H344.684V330.633H351.671V324.861Z" fill="#4DD0E1"/>
<path d="M352.279 331.241H343.773V323.949H352.279V331.241ZM345.292 329.722H350.456V325.468H345.292V329.722Z" fill="#546E7A"/>
<path d="M266.559 360.329H286.305V148.279H266.559V360.329Z" fill="#FF7043"/>
<path d="M266.559 360.496H286.305V284.546H266.559V360.496Z" fill="#FFB74D"/>
<path d="M282.664 360.329H286.31V148.279H282.664V360.329Z" fill="#F4511E"/>
<path d="M282.664 360.496H286.31V284.546H282.664V360.496Z" fill="#FB8C00"/>
<path d="M271.204 157.809H278.191V152.037H271.204V157.809Z" fill="#4DD0E1"/>
<path d="M278.76 158.684H270.253V151.392H278.76V158.684ZM272.076 157.165H277.241V152.911H272.076V157.165Z" fill="#546E7A"/>
<path d="M260.703 157.751H266.475V153.498H260.703V157.751Z" fill="#00838F"/>
<path d="M271.204 170.036H278.191V164.264H271.204V170.036Z" fill="#4DD0E1"/>
<path d="M278.76 170.835H270.253V163.544H278.76V170.835ZM272.076 169.316H277.241V165.063H272.076V169.316Z" fill="#546E7A"/>
<path d="M260.703 170.281H266.475V166.028H260.703V170.281Z" fill="#00838F"/>
<path d="M271.204 182.566H278.191V176.794H271.204V182.566Z" fill="#FDD835"/>
<path d="M278.76 183.291H270.253V176H278.76V183.291ZM272.076 181.772H277.241V177.519H272.076V181.772Z" fill="#546E7A"/>
<path d="M260.703 182.508H266.475V178.255H260.703V182.508Z" fill="#00838F"/>
<path d="M271.204 194.793H278.191V189.02H271.204V194.793Z" fill="#FDD835"/>
<path d="M278.76 195.747H270.253V188.456H278.76V195.747ZM272.076 193.924H277.241V189.671H272.076V193.924Z" fill="#546E7A"/>
<path d="M260.703 194.735H266.475V190.482H260.703V194.735Z" fill="#00838F"/>
<path d="M271.204 207.323H278.191V201.551H271.204V207.323Z" fill="#4DD0E1"/>
<path d="M278.76 207.899H270.253V200.607H278.76V207.899ZM272.076 206.38H277.241V202.126H272.076V206.38Z" fill="#546E7A"/>
<path d="M260.703 207.265H266.475V203.012H260.703V207.265Z" fill="#00838F"/>
<path d="M271.204 219.55H278.191V213.778H271.204V219.55Z" fill="#4DD0E1"/>
<path d="M278.76 220.355H270.253V213.063H278.76V220.355ZM272.076 218.836H277.241V214.582H272.076V218.836Z" fill="#546E7A"/>
<path d="M260.703 219.492H266.475V215.238H260.703V219.492Z" fill="#00838F"/>
<path d="M271.204 231.777H278.191V226.005H271.204V231.777Z" fill="#4DD0E1"/>
<path d="M278.76 232.506H270.253V225.215H278.76V232.506ZM272.076 230.987H277.241V226.734H272.076V230.987Z" fill="#546E7A"/>
<path d="M260.703 232.022H266.475V227.769H260.703V232.022Z" fill="#00838F"/>
<path d="M271.204 244.307H278.191V238.535H271.204V244.307Z" fill="#FDD835"/>
<path d="M278.76 244.962H270.253V237.671H278.76V244.962ZM272.076 243.443H277.241V239.19H272.076V243.443Z" fill="#546E7A"/>
<path d="M260.703 244.248H266.475V239.995H260.703V244.248Z" fill="#00838F"/>
<path d="M271.204 256.534H278.191V250.762H271.204V256.534Z" fill="#4DD0E1"/>
<path d="M278.76 257.418H270.253V250.127H278.76V257.418ZM272.076 255.899H277.241V251.646H272.076V255.899Z" fill="#546E7A"/>
<path d="M260.703 256.475H266.475V252.222H260.703V256.475Z" fill="#00838F"/>
<path d="M271.204 268.76H278.191V262.988H271.204V268.76Z" fill="#FDD835"/>
<path d="M278.76 269.57H270.253V262.278H278.76V269.57ZM272.076 268.051H277.241V263.797H272.076V268.051Z" fill="#546E7A"/>
<path d="M260.703 269.006H266.475V264.753H260.703V269.006Z" fill="#00838F"/>
<path d="M271.204 281.291H278.191V275.519H271.204V281.291Z" fill="#4DD0E1"/>
<path d="M278.76 282.025H270.253V274.734H278.76V282.025ZM272.076 280.506H277.241V276.253H272.076V280.506Z" fill="#546E7A"/>
<path d="M260.703 281.232H266.475V276.979H260.703V281.232Z" fill="#00838F"/>
<path d="M242.2 338.009H266.504V333.756H242.2V338.009Z" fill="#00838F"/>
<path d="M271.204 293.517H278.191V287.745H271.204V293.517Z" fill="#4DD0E1"/>
<path d="M278.76 294.481H270.253V287.19H278.76V294.481ZM272.076 292.658H277.241V288.405H272.076V292.658Z" fill="#546E7A"/>
<path d="M271.204 306.048H278.191V300.276H271.204V306.048Z" fill="#FDD835"/>
<path d="M278.76 306.633H270.253V299.342H278.76V306.633ZM272.076 305.114H277.241V300.861H272.076V305.114Z" fill="#546E7A"/>
<path d="M271.204 318.275H278.191V312.502H271.204V318.275Z" fill="#4DD0E1"/>
<path d="M278.76 319.089H270.253V311.798H278.76V319.089ZM272.076 317.57H277.241V313.317H272.076V317.57Z" fill="#546E7A"/>
<path d="M271.204 330.501H278.191V324.729H271.204V330.501Z" fill="#4DD0E1"/>
<path d="M278.76 331.241H270.253V323.949H278.76V331.241ZM272.076 329.722H277.241V325.468H272.076V329.722Z" fill="#546E7A"/>
<path d="M337.088 137.722L311.266 128L285.443 137.722V357.063H337.088V137.722Z" fill="#FFE0B2"/>
<path d="M311.266 128L285.443 137.722V144.709L311.266 134.987L337.088 144.709V137.722L311.266 128Z" fill="#90A4AE"/>
<path d="M337.392 334.279H285.443V360.101H337.392V334.279Z" fill="#90A4AE"/>
<path d="M362 360.405H242V366.481H362V360.405Z" fill="#90A4AE"/>
<path d="M328.282 148.962H294.56V154.734H328.282V148.962Z" fill="#00838F"/>
<path d="M328.887 155.646H293.343V148.051H328.887V155.646ZM295.166 153.823H327.065V149.57H295.166V153.823Z" fill="#8D6E63"/>
<path d="M328.282 161.417H294.56V167.19H328.282V161.417Z" fill="#00838F"/>
<path d="M328.887 168.101H293.343V160.506H328.887V168.101ZM295.166 166.278H327.065V162.025H295.166V166.278Z" fill="#8D6E63"/>
<path d="M328.282 173.874H294.56V179.646H328.282V173.874Z" fill="#00838F"/>
<path d="M328.887 180.557H293.343V172.962H328.887V180.557ZM295.166 179.038H327.065V174.785H295.166V179.038Z" fill="#8D6E63"/>
<path d="M328.282 186.633H294.56V192.405H328.282V186.633Z" fill="#00838F"/>
<path d="M328.887 193.316H293.343V185.722H328.887V193.316ZM295.166 191.494H327.065V187.241H295.166V191.494Z" fill="#8D6E63"/>
<path d="M328.282 199.088H294.56V204.861H328.282V199.088Z" fill="#00838F"/>
<path d="M328.887 205.772H293.343V198.177H328.887V205.772ZM295.166 204.253H327.065V200H295.166V204.253Z" fill="#8D6E63"/>
<path d="M328.282 211.848H294.56V217.621H328.282V211.848Z" fill="#00838F"/>
<path d="M328.887 218.532H293.343V210.937H328.887V218.532ZM295.166 216.709H327.065V212.456H295.166V216.709Z" fill="#8D6E63"/>
<path d="M328.282 224.304H294.56V230.076H328.282V224.304Z" fill="#00838F"/>
<path d="M328.887 230.987H293.343V223.393H328.887V230.987ZM295.166 229.165H327.065V225.215H295.166V229.165Z" fill="#8D6E63"/>
<path d="M328.282 237.063H294.56V242.835H328.282V237.063Z" fill="#00838F"/>
<path d="M328.887 243.747H293.343V236.152H328.887V243.747ZM295.166 241.924H327.065V237.671H295.166V241.924Z" fill="#8D6E63"/>
<path d="M328.282 249.519H294.56V255.291H328.282V249.519Z" fill="#00838F"/>
<path d="M328.887 256.202H293.343V248.607H328.887V256.202ZM295.166 254.38H327.065V250.126H295.166V254.38Z" fill="#8D6E63"/>
<path d="M328.282 261.975H294.56V267.747H328.282V261.975Z" fill="#00838F"/>
<path d="M328.887 268.658H293.343V261.063H328.887V268.658ZM295.166 267.139H327.065V262.886H295.166V267.139Z" fill="#8D6E63"/>
<path d="M328.282 274.734H294.56V280.507H328.282V274.734Z" fill="#00838F"/>
<path d="M328.887 281.418H293.343V273.823H328.887V281.418ZM295.166 279.595H327.065V275.342H295.166V279.595Z" fill="#8D6E63"/>
<path d="M328.282 287.19H294.56V292.962H328.282V287.19Z" fill="#00838F"/>
<path d="M328.887 293.873H293.343V286.279H328.887V293.873ZM295.166 292.354H327.065V288.101H295.166V292.354Z" fill="#8D6E63"/>
<path d="M328.282 299.95H294.56V305.722H328.282V299.95Z" fill="#00838F"/>
<path d="M328.887 306.633H293.343V299.038H328.887V306.633ZM295.166 304.81H327.065V300.557H295.166V304.81Z" fill="#8D6E63"/>
<path d="M328.282 312.405H294.56V318.178H328.282V312.405Z" fill="#00838F"/>
<path d="M328.887 319.089H293.343V311.494H328.887V319.089ZM295.166 317.266H327.065V313.317H295.166V317.266Z" fill="#8D6E63"/>
<path d="M328.282 324.861H294.56V330.633H328.282V324.861Z" fill="#00838F"/>
<path d="M328.887 331.848H293.343V324.253H328.887V331.848ZM295.166 330.025H327.065V325.772H295.166V330.025Z" fill="#8D6E63"/>
<path d="M327.67 339.139H294.556V360.101H327.67V339.139Z" fill="#00838F"/>
<path d="M328.583 361.317H293.646V338.532H328.583V361.317ZM295.165 359.494H326.76V340.051H295.165V359.494Z" fill="#8D6E63"/>
<path d="M311.875 339.139H310.052V360.101H311.875V339.139Z" fill="#8D6E63"/>
<path d="M754 524L754 461L-40 461L-40 524L754 524Z" fill="#DCD0BE"/>
<path d="M754 836L754 773L136 773L136 836L754 836Z" fill="#DCD0BE"/>
<path d="M858 958L858 895L240 895L240 958L858 958Z" fill="#DCD0BE"/>
<rect x="14" y="388" width="87" height="4" rx="2" fill="black" fill-opacity="0.1"/>
<path d="M719 404H-12.0005V482H719V404Z" fill="#E9E9E9"/>
<path d="M719 823H236V901H719V823Z" fill="#E9E9E9"/>
<path d="M204 -20H126V791H204V-20Z" fill="#E9E9E9"/>
<path d="M198 -14H132V791H198V-14Z" fill="#A9B2CA"/>
<path d="M60.8857 308C64.4756 308 67.3857 306.881 67.3857 305.5C67.3857 304.119 64.4756 303 60.8857 303C57.2959 303 54.3857 304.119 54.3857 305.5C54.3857 306.881 57.2959 308 60.8857 308Z" fill="black" fill-opacity="0.1"/>
<path d="M61.0862 282.544C61.0862 282.544 55.3862 281.004 52.9529 272.974C50.5529 264.944 50.1529 244.868 52.9529 236.804C55.7529 228.774 62.1862 222.617 66.0529 228.071C69.9195 233.558 72.2529 258.754 69.5862 269.528C66.9529 280.302 63.0862 282.008 61.0862 282.544Z" fill="#4B823D"/>
<path d="M59.0536 227.435C63.7536 227.937 66.1869 238.812 67.1869 246.675C68.1869 254.538 68.9869 271.87 62.4202 273.911C55.9536 275.952 52.6536 271.669 52.5869 271.569C52.6869 272.071 52.8202 272.539 52.9536 272.941C55.3536 280.971 61.0869 282.51 61.0869 282.51C63.0869 282.008 66.9536 280.302 69.6202 269.528C72.2869 258.754 69.9536 233.558 66.0869 228.071C64.1202 225.327 61.5202 225.528 59.0536 227.435Z" fill="#3F6D32"/>
<path d="M58.5191 306.4C58.5191 306.4 59.2524 277.09 59.0524 276.086C58.8524 275.115 56.2524 270.598 56.2524 270.598C56.2524 270.598 59.5858 274.68 59.8858 273.007C60.1858 271.335 60.8191 258.519 60.8191 258.519C60.8191 258.519 61.0191 271.468 61.8524 271.335C62.6858 271.201 66.1191 266.115 66.1191 266.115C66.1191 266.115 62.1858 272.84 62.1858 275.383C62.1858 277.926 62.4858 306.4 62.4858 306.4H58.5191Z" fill="#695020"/>
<path d="M77.8857 321C81.4756 321 84.3857 319.881 84.3857 318.5C84.3857 317.119 81.4756 316 77.8857 316C74.2959 316 71.3857 317.119 71.3857 318.5C71.3857 319.881 74.2959 321 77.8857 321Z" fill="black" fill-opacity="0.1"/>
<path d="M78.0862 295.544C78.0862 295.544 72.3862 294.004 69.9529 285.974C67.5529 277.944 67.1529 257.868 69.9529 249.804C72.7529 241.774 79.1862 235.617 83.0529 241.071C86.9195 246.558 89.2529 271.754 86.5862 282.528C83.9529 293.302 80.0862 295.008 78.0862 295.544Z" fill="#4B823D"/>
<path d="M76.0536 240.435C80.7536 240.937 83.1869 251.812 84.1869 259.675C85.1869 267.538 85.9869 284.87 79.4202 286.911C72.9536 288.952 69.6536 284.669 69.5869 284.569C69.6869 285.071 69.8202 285.539 69.9536 285.941C72.3536 293.971 78.0869 295.51 78.0869 295.51C80.0869 295.008 83.9536 293.302 86.6202 282.528C89.2869 271.754 86.9536 246.558 83.0869 241.071C81.1202 238.327 78.5202 238.528 76.0536 240.435Z" fill="#3F6D32"/>
<path d="M75.5191 319.4C75.5191 319.4 76.2524 290.09 76.0524 289.086C75.8524 288.115 73.2524 283.598 73.2524 283.598C73.2524 283.598 76.5858 287.68 76.8858 286.007C77.1858 284.335 77.8191 271.519 77.8191 271.519C77.8191 271.519 78.0191 284.468 78.8524 284.335C79.6858 284.201 83.1191 279.115 83.1191 279.115C83.1191 279.115 79.1858 285.84 79.1858 288.383C79.1858 290.926 79.4858 319.4 79.4858 319.4H75.5191Z" fill="#695020"/>
<path d="M43.8857 320C47.4756 320 50.3857 318.881 50.3857 317.5C50.3857 316.119 47.4756 315 43.8857 315C40.2959 315 37.3857 316.119 37.3857 317.5C37.3857 318.881 40.2959 320 43.8857 320Z" fill="black" fill-opacity="0.1"/>
<path d="M44.0862 294.544C44.0862 294.544 38.3862 293.004 35.9529 284.974C33.5529 276.944 33.1529 256.868 35.9529 248.804C38.7529 240.774 45.1862 234.617 49.0529 240.071C52.9195 245.558 55.2529 270.754 52.5862 281.528C49.9529 292.302 46.0862 294.008 44.0862 294.544Z" fill="#4B823D"/>
<path d="M42.0536 239.435C46.7536 239.937 49.1869 250.812 50.1869 258.675C51.1869 266.538 51.9869 283.87 45.4202 285.911C38.9536 287.952 35.6536 283.669 35.5869 283.569C35.6869 284.071 35.8202 284.539 35.9536 284.941C38.3536 292.971 44.0869 294.51 44.0869 294.51C46.0869 294.008 49.9536 292.302 52.6202 281.528C55.2869 270.754 52.9536 245.558 49.0869 240.071C47.1202 237.327 44.5202 237.528 42.0536 239.435Z" fill="#3F6D32"/>
<path d="M41.5191 318.4C41.5191 318.4 42.2524 289.09 42.0524 288.086C41.8524 287.115 39.2524 282.598 39.2524 282.598C39.2524 282.598 42.5858 286.68 42.8858 285.007C43.1858 283.335 43.8191 270.519 43.8191 270.519C43.8191 270.519 44.0191 283.468 44.8524 283.335C45.6858 283.201 49.1191 278.115 49.1191 278.115C49.1191 278.115 45.1858 284.84 45.1858 287.383C45.1858 289.926 45.4858 318.4 45.4858 318.4H41.5191Z" fill="#695020"/>
<path d="M93.7377 335.802C93.7377 335.802 87.1044 334.011 84.2726 324.666C81.4797 315.32 81.0142 291.957 84.2726 282.573C87.5311 273.228 95.0178 266.063 99.5176 272.41C104.017 278.796 106.733 308.117 103.629 320.655C100.565 333.193 96.0652 335.179 93.7377 335.802Z" fill="#4B823D"/>
<path d="M91.3722 271.67C96.8418 272.254 99.6735 284.909 100.837 294.06C102.001 303.21 102.932 323.38 95.2901 325.756C87.7646 328.131 83.9243 323.147 83.8467 323.03C83.9631 323.614 84.1182 324.159 84.2734 324.626C87.0664 333.972 93.7384 335.763 93.7384 335.763C96.0659 335.179 100.566 333.193 103.669 320.655C106.772 308.117 104.057 278.796 99.5571 272.41C97.2685 269.217 94.2427 269.451 91.3722 271.67Z" fill="#3F6D32"/>
<path d="M90.7496 363.565C90.7496 363.565 91.603 329.455 91.3703 328.287C91.1375 327.158 88.1118 321.901 88.1118 321.901C88.1118 321.901 91.9909 326.651 92.3401 324.704C92.6892 322.758 93.4262 307.844 93.4262 307.844C93.4262 307.844 93.659 322.913 94.6287 322.758C95.5985 322.602 99.594 316.683 99.594 316.683C99.594 316.683 95.0167 324.51 95.0167 327.469C95.0167 330.428 95.3658 363.565 95.3658 363.565H90.7496Z" fill="#695020"/>
<path d="M97.3782 352.93H92.9736V354.887H97.3782V352.93Z" fill="#875E51"/>
<path d="M97.3779 369.324H92.9734V371.282H97.3779V369.324Z" fill="#875E51"/>
<path d="M93.7074 293.713H17.1174V388.655H93.7074V293.713Z" fill="#BCAAA4"/>
<path d="M97.1336 295.181H13.9368V301.788H97.1336V295.181Z" fill="#A1887F"/>
<path d="M100.07 292H11V295.426H100.07V292Z" fill="#BCAAA4"/>
<path d="M97.1336 338.737H13.9368V343.142H97.1336V338.737Z" fill="#D7CCC8"/>
<path d="M93.7074 343.386H17.1174V349.014H93.7074V343.386Z" fill="#A1887F"/>
<path d="M34.9819 317.693H23.4812V336.29H34.9819V317.693Z" fill="#875E51"/>
<path d="M33.5141 318.917H24.7051V335.067H33.5141V318.917Z" fill="#B2EBF2"/>
<path d="M34.9822 322.098H23.4814V323.321H34.9822V322.098Z" fill="#875E51"/>
<path d="M36.2045 316.714H22.5015V318.672H36.2045V316.714Z" fill="#875E51"/>
<path d="M36.2042 334.333H22.5012V336.29H36.2042V334.333Z" fill="#875E51"/>
<path d="M50.397 317.693H38.8962V336.29H50.397V317.693Z" fill="#875E51"/>
<path d="M48.9285 318.917H40.1194V335.067H48.9285V318.917Z" fill="#B2EBF2"/>
<path d="M50.3967 322.098H38.896V323.321H50.3967V322.098Z" fill="#875E51"/>
<path d="M51.6197 316.714H37.9167V318.672H51.6197V316.714Z" fill="#875E51"/>
<path d="M51.6193 334.333H37.9163V336.29H51.6193V334.333Z" fill="#875E51"/>
<path d="M72.1741 317.693H60.6733V336.29H72.1741V317.693Z" fill="#875E51"/>
<path d="M70.7058 318.917H61.8967V335.067H70.7058V318.917Z" fill="#B2EBF2"/>
<path d="M72.1738 322.098H60.6731V323.321H72.1738V322.098Z" fill="#875E51"/>
<path d="M73.1524 316.714H59.4495V318.672H73.1524V316.714Z" fill="#875E51"/>
<path d="M73.1527 334.333H59.4497V336.29H73.1527V334.333Z" fill="#875E51"/>
<path d="M87.5894 317.693H76.0886V336.29H87.5894V317.693Z" fill="#875E51"/>
<path d="M86.1213 318.917H77.3123V335.067H86.1213V318.917Z" fill="#FFCA28"/>
<path d="M87.5894 322.098H76.0886V323.321H87.5894V322.098Z" fill="#875E51"/>
<path d="M88.5683 316.714H74.8652V318.672H88.5683V316.714Z" fill="#875E51"/>
<path d="M88.5678 334.333H74.8647V336.29H88.5678V334.333Z" fill="#875E51"/>
<path d="M20.5442 308.15V311.82C20.5442 313.289 22.0124 314.512 23.7253 314.512C25.4381 314.512 26.9063 313.289 26.9063 311.82V308.15H20.5442Z" fill="#F4511E"/>
<path d="M29.8429 302.033H23.9702L20.5444 308.15H26.9066L29.8429 302.033Z" fill="#FF7043"/>
<path d="M26.9053 308.15V311.82C26.9053 313.289 28.3734 314.512 30.0863 314.512C31.7992 314.512 33.2674 313.289 33.2674 311.82V308.15H26.9053Z" fill="#FAFAFA"/>
<path d="M33.2674 308.15L35.4697 302.032H29.8416L26.9053 308.15H33.2674Z" fill="white"/>
<path d="M33.2688 308.15V311.82C33.2688 313.289 34.737 314.512 36.4498 314.512C38.1627 314.512 39.6309 313.289 39.6309 311.82V308.15H33.2688Z" fill="#F4511E"/>
<path d="M39.6309 308.15L41.3438 302.032H35.4711L33.2688 308.15H39.6309Z" fill="#FF7043"/>
<path d="M45.9922 308.15L47.2157 302.032H41.343L39.6301 308.15H45.9922Z" fill="white"/>
<path d="M39.6301 308.15V311.82C39.6301 313.289 41.0983 314.512 42.8112 314.512C44.5241 314.512 45.9922 313.289 45.9922 311.82V308.15H39.6301Z" fill="#FAFAFA"/>
<path d="M52.3558 308.15L52.8452 302.032H47.2171L45.9937 308.15H52.3558Z" fill="#FF7043"/>
<path d="M45.9937 308.15V311.82C45.9937 313.289 47.4618 314.512 49.1747 314.512C50.8876 314.512 52.3558 313.289 52.3558 311.82V308.15H45.9937Z" fill="#F4511E"/>
<path d="M58.7169 308.15L58.2275 302.032H52.8441L52.3547 308.15H58.7169Z" fill="white"/>
<path d="M52.3547 308.15V311.82C52.3547 313.289 53.8229 314.512 55.5358 314.512C57.2487 314.512 58.7169 313.289 58.7169 311.82V308.15H52.3547Z" fill="#FAFAFA"/>
<path d="M58.7158 308.15V311.82C58.7158 313.289 60.184 314.512 61.8969 314.512C63.6098 314.512 65.0779 313.289 65.0779 311.82V308.15H58.7158Z" fill="#F4511E"/>
<path d="M65.08 308.15L63.8565 302.032H58.2285L58.7179 308.15H65.08Z" fill="#FF7043"/>
<path d="M65.0793 308.15V311.82C65.0793 313.289 66.5475 314.512 68.2604 314.512C69.9733 314.512 71.4415 313.289 71.4415 311.82V308.15H65.0793Z" fill="#FAFAFA"/>
<path d="M71.4416 308.15L69.7287 302.032H63.856L65.0794 308.15H71.4416Z" fill="white"/>
<path d="M77.8023 308.15L75.3553 302.032H69.7273L71.4402 308.15H77.8023Z" fill="#FF7043"/>
<path d="M71.4407 308.15V311.82C71.4407 313.289 72.9089 314.512 74.6217 314.512C76.3346 314.512 77.8028 313.289 77.8028 311.82V308.15H71.4407Z" fill="#F4511E"/>
<path d="M84.1662 308.15L81.2299 302.032H75.3572L77.8041 308.15H84.1662Z" fill="white"/>
<path d="M77.8042 308.15V311.82C77.8042 313.289 79.2723 314.512 80.9852 314.512C82.6981 314.512 84.1663 313.289 84.1663 311.82V308.15H77.8042Z" fill="#FAFAFA"/>
<path d="M84.1653 308.15V311.82C84.1653 313.289 85.6335 314.512 87.3463 314.512C89.0592 314.512 90.5274 313.289 90.5274 311.82V308.15H84.1653Z" fill="#F4511E"/>
<path d="M90.2823 308.15L87.1012 302.032H81.2285L84.1649 308.15H90.2823Z" fill="#FF7043"/>
<path d="M102.027 376.176C99.3353 376.176 97.1331 373.973 97.1331 371.282V353.174C97.1331 350.482 99.3353 348.28 102.027 348.28C104.719 348.28 106.921 350.482 106.921 353.174V371.282C106.921 373.729 104.719 376.176 102.027 376.176Z" fill="#F4511E"/>
<path d="M102.027 376.91C98.8455 376.91 96.1538 374.218 96.1538 371.037V352.929C96.1538 349.748 98.8455 347.057 102.027 347.057C105.208 347.057 107.899 349.748 107.899 352.929V371.037C107.899 374.218 105.208 376.91 102.027 376.91ZM102.027 348.77C99.8242 348.77 97.8667 350.727 97.8667 352.929V371.037C97.8667 373.239 99.8242 375.197 102.027 375.197C104.229 375.197 106.186 373.239 106.186 371.037V352.929C106.186 350.727 104.229 348.77 102.027 348.77Z" fill="#A1887F"/>
<path d="M102.516 350.972C102.272 350.972 102.027 350.972 101.782 351.217C101.538 351.461 101.538 351.706 101.538 352.195C101.538 353.174 101.782 353.664 102.516 353.664C102.761 353.664 103.251 353.664 103.495 353.419V354.153C103.251 354.398 102.761 354.398 102.272 354.398C101.782 354.398 101.293 354.153 100.804 353.908C100.559 353.664 100.314 352.93 100.314 352.44C100.314 351.951 100.314 351.706 100.559 351.217C100.804 350.972 101.048 350.727 101.293 350.483C101.538 350.238 102.027 350.238 102.272 350.238C102.761 350.238 103.006 350.238 103.495 350.483L103.251 351.217C103.006 351.217 103.006 350.972 102.761 350.972H102.516Z" fill="white"/>
<path d="M103.007 360.515L102.762 359.536H101.294L101.049 360.515H100.071L101.539 356.355H102.518L103.986 360.515H103.007ZM102.518 358.802C102.273 357.823 102.028 357.334 102.028 357.334V357.089C102.028 357.334 101.783 357.823 101.539 358.802H102.518Z" fill="white"/>
<path d="M101.784 366.633H101.05V362.473H103.253V363.207H101.784V364.186H103.253V364.92H101.784V366.633Z" fill="white"/>
<path d="M103.251 372.75H100.804V368.59H103.251V369.324H101.783V370.303H103.251V371.037H101.783V372.016H103.251V372.75Z" fill="white"/>
<path d="M43.0552 358.068C43.0552 358.068 38.6506 355.376 33.7567 355.376C28.6181 355.376 24.4583 358.068 24.4583 358.068V385.964H43.2999V358.068H43.0552Z" fill="#875E51"/>
<path d="M42.077 358.802C42.077 358.802 37.9172 356.355 33.5126 356.355C28.8634 356.355 24.9482 358.802 24.9482 358.802V384.006H41.8323V358.802H42.077Z" fill="#A1887F"/>
<path d="M83.4294 357.823H53.3318V376.665H83.4294V357.823Z" fill="#875E51"/>
<path d="M81.9612 359.047H54.5552V375.441H81.9612V359.047Z" fill="#FFCA28"/>
<path d="M83.4294 366.632H53.3318V367.856H83.4294V366.632Z" fill="#875E51"/>
<path d="M84.4086 356.845H52.1086V358.802H84.4086V356.845Z" fill="#875E51"/>
<path d="M84.4083 374.708H52.1084V376.665H84.4083V374.708Z" fill="#875E51"/>
<path d="M47.7046 357.089V359.291C47.7046 360.27 48.4387 361.004 49.6622 361.004C50.6409 361.004 51.6197 360.27 51.6197 359.291V357.089H47.7046Z" fill="#F4511E"/>
<path d="M53.0879 353.663H49.6622L47.7046 357.089H51.375L53.0879 353.663Z" fill="#FF7043"/>
<path d="M51.375 357.089V359.291C51.375 360.27 52.1091 361.004 53.3326 361.004C54.3113 361.004 55.2901 360.27 55.2901 359.291V357.089H51.375Z" fill="#FAFAFA"/>
<path d="M55.0454 357.089L56.5136 353.663H53.0879L51.375 357.089H55.0454Z" fill="white"/>
<path d="M55.0457 357.089V359.291C55.0457 360.27 55.7798 361.004 57.0032 361.004C57.982 361.004 58.9608 360.27 58.9608 359.291V357.089H55.0457Z" fill="#F4511E"/>
<path d="M58.9608 357.089L59.9396 353.663H56.5138L55.0457 357.089H58.9608Z" fill="#FF7043"/>
<path d="M62.6302 357.089L63.3643 353.663H59.9385L58.9597 357.089H62.6302Z" fill="white"/>
<path d="M58.9597 357.089V359.291C58.9597 360.27 59.6938 361.004 60.9173 361.004C61.8961 361.004 62.8749 360.27 62.8749 359.291V357.089H58.9597Z" fill="#FAFAFA"/>
<path d="M66.3006 357.089L66.79 353.663H63.3642L62.6301 357.089H66.3006Z" fill="#FF7043"/>
<path d="M62.6301 357.089V359.291C62.6301 360.27 63.3642 361.004 64.5877 361.004C65.5665 361.004 66.5453 360.27 66.5453 359.291V357.089H62.6301Z" fill="#F4511E"/>
<path d="M70.2157 357.089L69.7263 353.663H66.79L66.3005 357.089H70.2157Z" fill="white"/>
<path d="M66.3005 357.089V359.291C66.3005 360.27 67.0346 361.004 68.2581 361.004C69.2369 361.004 70.2157 360.27 70.2157 359.291V357.089H66.3005Z" fill="#FAFAFA"/>
<path d="M70.2173 357.089V359.291C70.2173 360.27 70.9514 361.004 72.1749 361.004C73.1537 361.004 74.1324 360.27 74.1324 359.291V357.089H70.2173Z" fill="#F4511E"/>
<path d="M73.8871 357.089L73.153 353.663H69.7273L70.2167 357.089H73.8871Z" fill="#FF7043"/>
<path d="M73.8877 357.089V359.291C73.8877 360.27 74.6218 361.004 75.8453 361.004C76.8241 361.004 77.8029 360.27 77.8029 359.291V357.089H73.8877Z" fill="#FAFAFA"/>
<path d="M77.8033 357.089L76.5798 353.663H73.1541L73.8881 357.089H77.8033Z" fill="white"/>
<path d="M81.4723 357.089L80.0041 353.663H76.5784L77.8019 357.089H81.4723Z" fill="#FF7043"/>
<path d="M77.8018 357.089V359.291C77.8018 360.27 78.5358 361.004 79.7593 361.004C80.7381 361.004 81.7169 360.27 81.7169 359.291V357.089H77.8018Z" fill="#F4511E"/>
<path d="M85.1438 357.089L83.4309 353.663H80.0051L81.4733 357.089H85.1438Z" fill="white"/>
<path d="M81.4724 357.089V359.291C81.4724 360.27 82.2065 361.004 83.43 361.004C84.4087 361.004 85.3875 360.27 85.3875 359.291V357.089H81.4724Z" fill="#FAFAFA"/>
<path d="M85.1428 357.089V359.291C85.1428 360.27 85.8769 361.004 87.1004 361.004C88.0792 361.004 89.0579 360.27 89.0579 359.291V357.089H85.1428Z" fill="#F4511E"/>
<path d="M89.0575 357.089L86.8552 353.663H83.4294L85.1423 357.089H89.0575Z" fill="#FF7043"/>
<path d="M87.0999 352.195H49.6614V353.663H87.0999V352.195Z" fill="#875E51"/>
<path d="M39.6275 361.494H27.8821V368.835H39.6275V361.494Z" fill="#B2EBF2"/>
<path d="M40.1178 369.569H27.1489V361.004H40.1178V369.569ZM28.3724 368.345H38.8943V362.228H28.3724V368.345Z" fill="#8D6E63"/>
<path d="M97.1333 384H13.9365V389.383H97.1333V384Z" fill="#875E51"/>
<path d="M40.1197 372.261H38.8962V376.665H40.1197V372.261Z" fill="#8D6E63"/>
<path d="M62.1415 371.526C62.1415 372.995 60.918 374.463 59.2051 374.463C57.737 374.463 56.2688 373.239 56.2688 371.526H62.1415Z" fill="#00897B"/>
<path d="M60.1836 372.261H58.2261V374.952H60.1836V372.261Z" fill="#00897B"/>
<path d="M62.6321 372.261H60.9192V373.484H62.6321V372.261Z" fill="#00897B"/>
<path d="M69.4826 371.526C69.4826 372.995 68.2591 374.463 66.5462 374.463C65.078 374.463 63.6099 373.239 63.6099 371.526H69.4826Z" fill="#00897B"/>
<path d="M67.7711 372.261H65.8135V374.952H67.7711V372.261Z" fill="#00897B"/>
<path d="M70.217 372.261H68.5042V373.484H70.217V372.261Z" fill="#00897B"/>
<path d="M80.0038 371.526C80.0038 372.995 78.7803 374.463 77.0675 374.463C75.5993 374.463 74.1311 373.239 74.1311 371.526H80.0038Z" fill="#F4511E"/>
<path d="M78.0462 372.261H76.0886V374.952H78.0462V372.261Z" fill="#F4511E"/>
<path d="M691 410H-2.00049V476H691V410Z" fill="#A9B2CA"/>
<path d="M478 829H236V895H478V829Z" fill="#A9B2CA"/>
<path d="M287.546 442.16H281.032V443.936H287.546V442.16Z" fill="#E9E9E9"/>
<path d="M332.121 442.16H325.608V443.936H332.121V442.16Z" fill="#E9E9E9"/>
<path d="M272.743 442.16H266.23V443.936H272.743V442.16Z" fill="#E9E9E9"/>
<path d="M317.318 442.16H310.805V443.936H317.318V442.16Z" fill="#E9E9E9"/>
<path d="M257.939 442.16H251.425V443.936H257.939V442.16Z" fill="#E9E9E9"/>
<path d="M302.514 442.16H296V443.936H302.514V442.16Z" fill="#E9E9E9"/>
<path d="M377.121 442.16H370.608V443.936H377.121V442.16Z" fill="#E9E9E9"/>
<path d="M421.696 442.16H415.183V443.936H421.696V442.16Z" fill="#E9E9E9"/>
<path d="M362.318 442.16H355.805V443.936H362.318V442.16Z" fill="#E9E9E9"/>
<path d="M406.894 442.16H400.38V443.936H406.894V442.16Z" fill="#E9E9E9"/>
<path d="M347.514 442.16H341V443.936H347.514V442.16Z" fill="#E9E9E9"/>
<path d="M392.089 442.16H385.575V443.936H392.089V442.16Z" fill="#E9E9E9"/>
<path d="M86.1202 442.16H79.6067V443.936H86.1202V442.16Z" fill="#E9E9E9"/>
<path d="M71.3145 442.16H64.801V443.936H71.3145V442.16Z" fill="#E9E9E9"/>
<path d="M56.5128 442.16H49.9993V443.936H56.5128V442.16Z" fill="#E9E9E9"/>
<path d="M41.5128 442.16H34.9993V443.936H41.5128V442.16Z" fill="#E9E9E9"/>
<path d="M287.546 861.16H281.032V862.936H287.546V861.16Z" fill="#E9E9E9"/>
<path d="M332.121 861.16H325.608V862.936H332.121V861.16Z" fill="#E9E9E9"/>
<path d="M272.743 861.16H266.23V862.936H272.743V861.16Z" fill="#E9E9E9"/>
<path d="M317.318 861.16H310.805V862.936H317.318V861.16Z" fill="#E9E9E9"/>
<path d="M257.939 861.16H251.425V862.936H257.939V861.16Z" fill="#E9E9E9"/>
<path d="M302.514 861.16H296V862.936H302.514V861.16Z" fill="#E9E9E9"/>
<path d="M377.121 861.16H370.608V862.936H377.121V861.16Z" fill="#E9E9E9"/>
<path d="M421.696 861.16H415.183V862.936H421.696V861.16Z" fill="#E9E9E9"/>
<path d="M362.318 861.16H355.805V862.936H362.318V861.16Z" fill="#E9E9E9"/>
<path d="M406.894 861.16H400.38V862.936H406.894V861.16Z" fill="#E9E9E9"/>
<path d="M347.514 861.16H341V862.936H347.514V861.16Z" fill="#E9E9E9"/>
<path d="M392.089 861.16H385.575V862.936H392.089V861.16Z" fill="#E9E9E9"/>
<path d="M165.962 324H164.185V330.512H165.962V324Z" fill="#E9E9E9"/>
<path d="M165.962 280H164.185V286.512H165.962V280Z" fill="#E9E9E9"/>
<path d="M165.962 237H164.185V243.512H165.962V237Z" fill="#E9E9E9"/>
<path d="M165.962 338.799H164.185V345.311H165.962V338.799Z" fill="#E9E9E9"/>
<path d="M165.962 294.799H164.185V301.311H165.962V294.799Z" fill="#E9E9E9"/>
<path d="M165.962 251.799H164.185V258.311H165.962V251.799Z" fill="#E9E9E9"/>
<path d="M165.962 309.599H164.185V316.11H165.962V309.599Z" fill="#E9E9E9"/>
<path d="M165.962 266.599H164.185V273.11H165.962V266.599Z" fill="#E9E9E9"/>
<path d="M165.962 587H164.185V593.512H165.962V587Z" fill="#E9E9E9"/>
<path d="M165.962 543H164.185V549.512H165.962V543Z" fill="#E9E9E9"/>
<path d="M165.962 630.418H164.185V636.93H165.962V630.418Z" fill="#E9E9E9"/>
<path d="M165.962 601.799H164.185V608.311H165.962V601.799Z" fill="#E9E9E9"/>
<path d="M165.962 557.799H164.185V564.311H165.962V557.799Z" fill="#E9E9E9"/>
<path d="M165.962 645.217H164.185V651.729H165.962V645.217Z" fill="#E9E9E9"/>
<path d="M165.962 529.181H164.185V535.693H165.962V529.181Z" fill="#E9E9E9"/>
<path d="M165.962 616.599H164.185V623.111H165.962V616.599Z" fill="#E9E9E9"/>
<path d="M165.962 572.599H164.185V579.111H165.962V572.599Z" fill="#E9E9E9"/>
<path d="M165.962 660.017H164.185V666.529H165.962V660.017Z" fill="#E9E9E9"/>
<path d="M165.962 59.582H164.185V66.0938H165.962V59.582Z" fill="#E9E9E9"/>
<path d="M165.962 147H164.185V153.512H165.962V147Z" fill="#E9E9E9"/>
<path d="M165.962 103H164.185V109.512H165.962V103Z" fill="#E9E9E9"/>
<path d="M165.962 190.418H164.185V196.93H165.962V190.418Z" fill="#E9E9E9"/>
<path d="M165.962 74.3813H164.185V80.8931H165.962V74.3813Z" fill="#E9E9E9"/>
<path d="M165.962 161.799H164.185V168.311H165.962V161.799Z" fill="#E9E9E9"/>
<path d="M165.962 117.799H164.185V124.311H165.962V117.799Z" fill="#E9E9E9"/>
<path d="M165.962 205.217H164.185V211.729H165.962V205.217Z" fill="#E9E9E9"/>
<path d="M165.962 89.1809H164.185V95.6927H165.962V89.1809Z" fill="#E9E9E9"/>
<path d="M165.962 176.599H164.185V183.111H165.962V176.599Z" fill="#E9E9E9"/>
<path d="M165.962 132.599H164.185V139.111H165.962V132.599Z" fill="#E9E9E9"/>
<path d="M165.962 220.017H164.185V226.529H165.962V220.017Z" fill="#E9E9E9"/>
<path d="M165.962 440H164.185V446.512H165.962V440Z" fill="#E9E9E9"/>
<path d="M165.962 396H164.185V402.512H165.962V396Z" fill="#E9E9E9"/>
<path d="M165.962 410.799H164.185V417.311H165.962V410.799Z" fill="#E9E9E9"/>
<path d="M165.962 425.599H164.185V432.11H165.962V425.599Z" fill="#E9E9E9"/>
<path d="M165.962 615.582H164.185V622.094H165.962V615.582Z" fill="#E9E9E9"/>
<path d="M165.962 703H164.185V709.512H165.962V703Z" fill="#E9E9E9"/>
<path d="M165.962 659H164.185V665.512H165.962V659Z" fill="#E9E9E9"/>
<path d="M165.962 746.418H164.185V752.93H165.962V746.418Z" fill="#E9E9E9"/>
<path d="M165.962 630.381H164.185V636.893H165.962V630.381Z" fill="#E9E9E9"/>
<path d="M165.962 717.799H164.185V724.311H165.962V717.799Z" fill="#E9E9E9"/>
<path d="M165.962 673.799H164.185V680.311H165.962V673.799Z" fill="#E9E9E9"/>
<path d="M165.962 761.217H164.185V767.729H165.962V761.217Z" fill="#E9E9E9"/>
<path d="M165.962 645.181H164.185V651.693H165.962V645.181Z" fill="#E9E9E9"/>
<path d="M165.962 732.599H164.185V739.111H165.962V732.599Z" fill="#E9E9E9"/>
<path d="M165.962 688.599H164.185V695.111H165.962V688.599Z" fill="#E9E9E9"/>
<path d="M165.962 776.017H164.185V782.529H165.962V776.017Z" fill="#E9E9E9"/>
<path d="M244.023 419.073H227V422.773H244.023V419.073Z" fill="#E9E9E9"/>
<path d="M244.023 427.953H227V431.653H244.023V427.953Z" fill="#E9E9E9"/>
<path d="M244.023 436.832H227V440.532H244.023V436.832Z" fill="#E9E9E9"/>
<path d="M244.023 445.712H227V449.412H244.023V445.712Z" fill="#E9E9E9"/>
<path d="M244.023 454.74H227V458.44H244.023V454.74Z" fill="#E9E9E9"/>
<path d="M244.023 463.619H227V467.319H244.023V463.619Z" fill="#E9E9E9"/>
<path d="M110.019 418.701L110.019 415L93 415L93 418.701L110.019 418.701Z" fill="#E9E9E9"/>
<path d="M110.019 427.581L110.019 423.881L93 423.881L93 427.581L110.019 427.581Z" fill="#E9E9E9"/>
<path d="M110.019 436.465L110.019 432.764L93 432.764L93 436.465L110.019 436.465Z" fill="#E9E9E9"/>
<path d="M110.019 445.496L110.019 441.795L93 441.795L93 445.496L110.019 445.496Z" fill="#E9E9E9"/>
<path fill-rule="evenodd" clip-rule="evenodd" d="M165 449C172.739 449 179 442.69 179 435C179 427.261 172.69 421 165 421C157.26 421 151 427.31 151 435C150.951 442.69 157.26 449 165 449Z" fill="#39672E" stroke="white" stroke-width="2" stroke-miterlimit="22.9256"/>
<path opacity="0.1" d="M172.392 435.05C172.392 436.63 169.175 437.912 165.206 437.912C161.236 437.912 158.02 436.63 158.02 435.05C158.02 433.47 161.236 432.188 165.206 432.188C169.175 432.188 172.392 433.47 172.392 435.05Z" fill="black"/>
<path d="M165.913 417.395L165.206 417.486L164.476 417.395L163.244 435.737H165.206H167.168L165.913 417.395Z" fill="#695020"/>
<path d="M174.49 421.631H175.539L173.167 416.227H174.49L172.574 411.945H173.76L171.114 407.8H172.733L170.064 402.487H171.114L169.038 397.816H170.521L168.148 393.786H169.768L166.962 389.801H168.308L165.205 383L162.103 389.801H163.426L160.62 393.786H162.24L159.89 397.816H161.373L159.297 402.487H160.323L157.677 407.8H159.297L156.65 411.945H157.814L155.898 416.227H157.244L154.871 421.631H155.898L153.388 426.554H165.205H176.999L174.49 421.631Z" fill="#588E3F"/>
<path d="M176.999 426.554L174.49 421.631H175.517L173.167 416.227H174.49L172.574 411.945H173.76L171.114 407.8H172.733L170.087 402.487H171.114L169.038 397.816H170.521L168.148 393.786H169.768L166.962 389.801H168.285L165.205 383C167.441 403.655 165.205 417.486 161.715 421.539C158.224 425.593 153.388 426.554 153.388 426.554H165.205H176.999Z" fill="#44722D"/>
<path d="M110.019 454.377L110.019 450.676L93 450.676L93 454.377L110.019 454.377Z" fill="#E9E9E9"/>
<path d="M110.019 463.258L110.019 459.557L93 459.557L93 463.258L110.019 463.258Z" fill="#E9E9E9"/>
<path d="M144.645 501H140.944V518.019H144.645V501Z" fill="#E9E9E9"/>
<path d="M153.526 501H149.825V518.019H153.526V501Z" fill="#E9E9E9"/>
<path d="M162.409 501H158.708V518.019H162.409V501Z" fill="#E9E9E9"/>
<path d="M171.44 501H167.739V518.019H171.44V501Z" fill="#E9E9E9"/>
<path d="M180.321 501H176.62V518.019H180.321V501Z" fill="#E9E9E9"/>
<path d="M189.202 501H185.501V518.019H189.202V501Z" fill="#E9E9E9"/>
<path d="M65.2992 528.422C65.2992 531.501 53.8302 534 39.6496 534C25.5134 534 14 531.501 14 528.422C14 525.343 25.4689 522.845 39.6496 522.845C53.8302 522.845 65.2992 525.299 65.2992 528.422Z" fill="black" fill-opacity="0.1"/>
<path d="M19.5005 528.5C19.5005 528.5 13.3335 526.727 15.734 520.97C18.1344 515.259 23.291 519.141 23.291 519.141C23.291 519.141 18.1344 514.902 22.1797 511.198C26.2249 507.495 27.3363 515.616 27.3363 515.616C27.3363 515.616 25.2914 505.844 34.1377 504.148C42.9839 502.497 45.5622 515.214 45.5622 515.214C45.5622 515.214 46.4957 505.62 50.5409 505.219C54.5862 504.862 50.5409 513.92 50.5409 513.92C50.5409 513.92 55.4752 506.156 62.7656 511.689C68.5005 516.042 64.9186 524.166 61.2097 528.333C57.5008 532.5 19.5005 528.5 19.5005 528.5Z" fill="#4B823D"/>
<path d="M18.6231 522.759C19.601 520.126 25.2021 520.885 25.2021 520.885C25.2021 520.885 22.2682 514.638 23.4685 513.879C24.6687 513.121 28.225 517.762 28.225 517.762C28.225 517.762 27.736 511.381 31.1589 508.703C34.5818 506.026 40.9386 508.48 44.4949 516.155C44.4949 516.155 44.8949 515.575 45.4728 514.906C44.9838 512.942 42.1388 502.635 34.1373 504.152C26.3579 505.624 26.9803 513.344 27.247 515.218C26.9803 513.612 25.6467 507.989 22.1793 511.202C18.1341 514.906 23.2907 519.145 23.2907 519.145C23.2907 519.145 18.1341 515.263 15.7336 520.974C13.3331 526.686 19.4232 528.382 19.4232 528.382C19.4232 528.382 17.6451 525.347 18.6231 522.759Z" fill="#6FB259"/>
<path d="M63.9992 509.726C56.3521 503.983 51.1763 512.041 51.1763 512.041C51.1763 512.041 55.4195 502.64 51.1763 503.011C47.4926 503.335 46.2803 510.884 46.0005 512.875C46.9797 511.764 48.2853 510.559 49.0314 511.208C50.2903 512.273 49.8241 515.376 49.8241 515.376C49.8241 515.376 55.0931 509.818 59.2897 511.995C63.4863 514.172 62.3672 527 62.3672 527C62.3672 527 71.5997 515.468 63.9992 509.726Z" fill="#6FB259"/>
<path d="M95.9999 678.025H77.0833V685.746H95.9999V678.025Z" fill="#875E51"/>
<path d="M95.9999 704.277H77.0833V711.998H95.9999V704.277Z" fill="#875E51"/>
<path d="M95.9999 730.529H77.0833V738.25H95.9999V730.529Z" fill="#875E51"/>
<path d="M95.9999 756.78H77.0833V764.501H95.9999V756.78Z" fill="#875E51"/>
<path d="M95.9999 783.032H77.0833V790.753H95.9999V783.032Z" fill="#875E51"/>
<path d="M90.2791 606.713L90.2791 560H45.1108L45.1108 606.713H90.2791Z" fill="#FFB74D"/>
<path d="M55.4214 590.736V596.913H63.9146V590.736H55.4214Z" fill="#B2EBF2"/>
<path d="M64.7328 597.726H54.3093V589.233H64.7328V597.726ZM56.2396 595.796H62.4164V591.549H56.2396V595.796Z" fill="#8D6E63"/>
<path d="M55.1196 579.841V586.018H63.6128V579.841H55.1196Z" fill="#00838F"/>
<path d="M64.7328 586.917H54.3093V578.424H64.7328V586.917ZM56.2396 584.987H62.4164V580.74H56.2396V584.987Z" fill="#8D6E63"/>
<path d="M55.2051 568.946V575.123H63.6982V568.946H55.2051Z" fill="#B2EBF2"/>
<path d="M64.733 576.107H54.3096V567.614H64.733V576.107ZM56.2398 573.791H62.4167V569.544H56.2398V573.791Z" fill="#8D6E63"/>
<path d="M73.325 590.494V596.671H81.8182V590.494H73.325Z" fill="#B2EBF2"/>
<path d="M82.878 597.726H72.4546V589.233H82.878V597.726ZM74.3849 595.796H80.5617V591.549H74.3849V595.796Z" fill="#8D6E63"/>
<path d="M73.0244 579.599V585.776H81.5176V579.599H73.0244Z" fill="#B2EBF2"/>
<path d="M82.878 586.917H72.4546V578.424H82.878V586.917ZM74.3849 584.987H80.5617V580.74H74.3849V584.987Z" fill="#8D6E63"/>
<path d="M73.1101 568.703V574.88H81.6033V568.703H73.1101Z" fill="#00838F"/>
<path d="M82.8785 576.107H72.4551V567.614H82.8785V576.107ZM74.3853 573.791H80.5622V569.544H74.3853V573.791Z" fill="#8D6E63"/>
<path d="M90.5946 601.587H15.3142V817.777H90.5946V601.587Z" fill="#4DB6AC"/>
<path d="M90.5946 659.109H15.3142V817.777H90.5946V659.109Z" fill="#FFB74D"/>
<path d="M90.5946 814H15.3142V821.721H90.5946V814Z" fill="#00838F"/>
<path d="M93.2991 601.587H13V606.992H93.2991V601.587Z" fill="#875E51"/>
<path d="M93.297 559.279H42.3379V564.684H93.297V559.279Z" fill="#875E51"/>
<path d="M34.2347 626.295H24.1973V636.332H34.2347V626.295Z" fill="#B2EBF2"/>
<path d="M35.3917 637.104H23.4241V625.136H35.3917V637.104ZM25.3543 634.787H33.0754V627.066H25.3543V634.787Z" fill="#8D6E63"/>
<path d="M50.4459 626.295H40.4084V636.332H50.4459V626.295Z" fill="#B2EBF2"/>
<path d="M51.2189 637.104H39.2512V625.136H51.2189V637.104ZM41.1815 634.788H48.9026V627.066H41.1815V634.788Z" fill="#8D6E63"/>
<path d="M66.2766 626.295H56.2393V636.332H66.2766V626.295Z" fill="#B2EBF2"/>
<path d="M67.0487 637.104H55.0811V625.136H67.0487V637.104ZM57.0113 634.788H64.7324V627.066H57.0113V634.788Z" fill="#8D6E63"/>
<path d="M82.1028 626.295H72.0654V636.332H82.1028V626.295Z" fill="#FDD835"/>
<path d="M82.8756 637.104H70.908V625.136H82.8756V637.104ZM73.2243 634.788H80.9453V627.066H73.2243V634.788Z" fill="#8D6E63"/>
<path d="M34.2347 642.122H24.1973V652.159H34.2347V642.122Z" fill="#FDD835"/>
<path d="M35.3917 653.318H23.4241V641.35H35.3917V653.318ZM25.3543 651.001H33.0754V643.28H25.3543V651.001Z" fill="#8D6E63"/>
<path d="M50.4459 642.122H40.4084V652.159H50.4459V642.122Z" fill="#B2EBF2"/>
<path d="M51.2189 653.318H39.2512V641.35H51.2189V653.318ZM41.1815 651.001H48.9026V643.28H41.1815V651.001Z" fill="#8D6E63"/>
<path d="M66.2766 642.122H56.2393V652.159H66.2766V642.122Z" fill="#FDD835"/>
<path d="M67.0487 653.318H55.0811V641.35H67.0487V653.318ZM57.0113 651.001H64.7324V643.28H57.0113V651.001Z" fill="#8D6E63"/>
<path d="M82.1028 642.122H72.0654V652.159H82.1028V642.122Z" fill="#B2EBF2"/>
<path d="M82.8756 653.318H70.908V641.35H82.8756V653.318ZM73.2243 651.001H80.9453V643.28H73.2243V651.001Z" fill="#8D6E63"/>
<path d="M90.5946 656.406H15.3142V661.425H90.5946V656.406Z" fill="#875E51"/>
<path d="M50.4469 610.466H24.5813V615.485H50.4469V610.466Z" fill="#FF7043"/>
<path d="M81.7167 610.466H55.8511V615.485H81.7167V610.466Z" fill="#FF7043"/>
<path d="M34.2339 666.058H24.1965V682.272H34.2339V666.058Z" fill="#B2EBF2"/>
<path d="M35.392 683.43H23.4243V664.9H35.392V683.43ZM25.3546 681.114H33.0757V666.83H25.3546V681.114Z" fill="#8D6E63"/>
<path d="M50.4461 666.058H40.4087V682.272H50.4461V666.058Z" fill="#B2EBF2"/>
<path d="M51.2191 683.43H39.2515V664.9H51.2191V683.43ZM41.1817 681.114H48.9028V666.83H41.1817V681.114Z" fill="#8D6E63"/>
<path d="M66.2759 666.058H56.2385V682.272H66.2759V666.058Z" fill="#FDD835"/>
<path d="M67.048 683.43H55.0803V664.9H67.048V683.43ZM57.0106 681.114H64.7317V666.83H57.0106V681.114Z" fill="#8D6E63"/>
<path d="M82.1021 666.058H72.0647V682.272H82.1021V666.058Z" fill="#B2EBF2"/>
<path d="M82.8761 683.43H70.9084V664.9H82.8761V683.43ZM73.2248 681.114H80.9458V666.83H73.2248V681.114Z" fill="#8D6E63"/>
<path d="M34.2347 682.272H24.1973V685.361H34.2347V682.272Z" fill="#B2EBF2"/>
<path d="M35.3917 686.519H23.4241V681.114H35.3917V686.519ZM25.3543 684.588H33.0754V683.43H25.3543V684.588Z" fill="#8D6E63"/>
<path d="M50.4456 682.272H40.4082V685.361H50.4456V682.272Z" fill="#B2EBF2"/>
<path d="M51.2186 686.519H39.251V681.114H51.2186V686.519ZM41.1812 684.588H48.9023V683.43H41.1812V684.588Z" fill="#8D6E63"/>
<path d="M66.2764 682.272H56.239V685.361H66.2764V682.272Z" fill="#B2EBF2"/>
<path d="M67.0485 686.519H55.0808V681.114H67.0485V686.519ZM57.0111 684.588H64.7321V683.43H57.0111V684.588Z" fill="#8D6E63"/>
<path d="M82.1026 682.272H72.0652V685.361H82.1026V682.272Z" fill="#B2EBF2"/>
<path d="M82.8754 686.519H70.9077V681.114H82.8754V686.519ZM73.224 684.588H80.9451V683.43H73.224V684.588Z" fill="#8D6E63"/>
<path d="M34.2339 691.924H24.1965V708.138H34.2339V691.924Z" fill="#B2EBF2"/>
<path d="M35.392 709.296H23.4243V690.765H35.392V709.296ZM25.3546 706.979H33.0757V692.695H25.3546V706.979Z" fill="#8D6E63"/>
<path d="M50.4461 691.924H40.4087V708.138H50.4461V691.924Z" fill="#FDD835"/>
<path d="M51.2191 709.296H39.2515V690.765H51.2191V709.296ZM41.1817 706.979H48.9028V692.696H41.1817V706.979Z" fill="#8D6E63"/>
<path d="M66.2759 691.924H56.2385V708.138H66.2759V691.924Z" fill="#B2EBF2"/>
<path d="M67.048 709.296H55.0803V690.765H67.048V709.296ZM57.0106 706.979H64.7317V692.695H57.0106V706.979Z" fill="#8D6E63"/>
<path d="M82.1021 691.924H72.0647V708.138H82.1021V691.924Z" fill="#B2EBF2"/>
<path d="M82.8761 709.296H70.9084V690.765H82.8761V709.296ZM73.2248 706.979H80.9458V692.696H73.2248V706.979Z" fill="#8D6E63"/>
<path d="M34.2347 708.138H24.1973V711.226H34.2347V708.138Z" fill="#B2EBF2"/>
<path d="M35.3917 712.384H23.4241V706.979H35.3917V712.384ZM25.3543 710.068H33.0754V708.91H25.3543V710.068Z" fill="#8D6E63"/>
<path d="M50.4456 708.138H40.4082V711.226H50.4456V708.138Z" fill="#B2EBF2"/>
<path d="M51.2186 712.384H39.251V706.979H51.2186V712.384ZM41.1812 710.068H48.9023V708.91H41.1812V710.068Z" fill="#8D6E63"/>
<path d="M66.2764 708.138H56.239V711.226H66.2764V708.138Z" fill="#B2EBF2"/>
<path d="M67.0485 712.384H55.0808V706.979H67.0485V712.384ZM57.0111 710.068H64.7321V708.91H57.0111V710.068Z" fill="#8D6E63"/>
<path d="M82.1026 708.138H72.0652V711.226H82.1026V708.138Z" fill="#B2EBF2"/>
<path d="M82.8754 712.384H70.9077V706.979H82.8754V712.384ZM73.224 710.068H80.9451V708.91H73.224V710.068Z" fill="#8D6E63"/>
<path d="M34.2347 717.403H24.1973V733.617H34.2347V717.403Z" fill="#B2EBF2"/>
<path d="M35.3917 734.775H23.4241V716.245H35.3917V734.775ZM25.3543 732.845H33.0754V718.561H25.3543V732.845Z" fill="#8D6E63"/>
<path d="M50.4456 717.403H40.4082V733.617H50.4456V717.403Z" fill="#FDD835"/>
<path d="M51.2186 734.775H39.251V716.245H51.2186V734.775ZM41.1812 732.845H48.9023V718.561H41.1812V732.845Z" fill="#8D6E63"/>
<path d="M66.2764 717.403H56.239V733.617H66.2764V717.403Z" fill="#B2EBF2"/>
<path d="M67.0485 734.775H55.0808V716.245H67.0485V734.775ZM57.0111 732.845H64.7321V718.561H57.0111V732.845Z" fill="#8D6E63"/>
<path d="M82.1026 717.403H72.0652V733.617H82.1026V717.403Z" fill="#FDD835"/>
<path d="M82.8754 734.775H70.9077V716.245H82.8754V734.775ZM73.224 732.845H80.9451V718.561H73.224V732.845Z" fill="#8D6E63"/>
<path d="M34.2351 733.617H24.1978V736.706H34.2351V733.617Z" fill="#B2EBF2"/>
<path d="M35.3922 738.25H23.4246V732.845H35.3922V738.25ZM25.3548 735.934H33.0759V734.776H25.3548V735.934Z" fill="#8D6E63"/>
<path d="M50.4461 733.617H40.4087V736.706H50.4461V733.617Z" fill="#B2EBF2"/>
<path d="M51.2191 738.25H39.2515V732.845H51.2191V738.25ZM41.1817 735.934H48.9028V734.776H41.1817V735.934Z" fill="#8D6E63"/>
<path d="M66.2766 733.617H56.2393V736.706H66.2766V733.617Z" fill="#B2EBF2"/>
<path d="M67.0487 738.25H55.0811V732.845H67.0487V738.25ZM57.0113 735.934H64.7324V734.776H57.0113V735.934Z" fill="#8D6E63"/>
<path d="M82.1031 733.617H72.0657V736.706H82.1031V733.617Z" fill="#B2EBF2"/>
<path d="M82.8759 738.25H70.9082V732.845H82.8759V738.25ZM73.2245 735.934H80.9456V734.776H73.2245V735.934Z" fill="#8D6E63"/>
<path d="M34.2339 743.269H24.1965V759.483H34.2339V743.269Z" fill="#B2EBF2"/>
<path d="M35.392 760.641H23.4243V742.11H35.392V760.641ZM25.3546 758.325H33.0757V744.041H25.3546V758.325Z" fill="#8D6E63"/>
<path d="M50.4461 743.269H40.4087V759.483H50.4461V743.269Z" fill="#B2EBF2"/>
<path d="M51.2191 760.641H39.2515V742.111H51.2191V760.641ZM41.1817 758.325H48.9028V744.041H41.1817V758.325Z" fill="#8D6E63"/>
<path d="M66.2759 743.269H56.2385V759.483H66.2759V743.269Z" fill="#B2EBF2"/>
<path d="M67.048 760.641H55.0803V742.11H67.048V760.641ZM57.0106 758.325H64.7317V744.041H57.0106V758.325Z" fill="#8D6E63"/>
<path d="M82.1021 743.269H72.0647V759.483H82.1021V743.269Z" fill="#FDD835"/>
<path d="M82.8761 760.641H70.9084V742.111H82.8761V760.641ZM73.2248 758.325H80.9458V744.041H73.2248V758.325Z" fill="#8D6E63"/>
<path d="M34.2347 759.483H24.1973V762.571H34.2347V759.483Z" fill="#B2EBF2"/>
<path d="M35.3917 763.729H23.4241V758.325H35.3917V763.729ZM25.3543 761.799H33.0754V760.641H25.3543V761.799Z" fill="#8D6E63"/>
<path d="M50.4456 759.483H40.4082V762.571H50.4456V759.483Z" fill="#B2EBF2"/>
<path d="M51.2186 763.729H39.251V758.325H51.2186V763.729ZM41.1812 761.799H48.9023V760.641H41.1812V761.799Z" fill="#8D6E63"/>
<path d="M66.2764 759.483H56.239V762.571H66.2764V759.483Z" fill="#B2EBF2"/>
<path d="M67.0485 763.729H55.0808V758.325H67.0485V763.729ZM57.0111 761.799H64.7321V760.641H57.0111V761.799Z" fill="#8D6E63"/>
<path d="M82.1026 759.483H72.0652V762.571H82.1026V759.483Z" fill="#B2EBF2"/>
<path d="M82.8754 763.729H70.9077V758.325H82.8754V763.729ZM73.224 761.799H80.9451V760.641H73.224V761.799Z" fill="#8D6E63"/>
<path d="M34.2339 768.748H24.1965V784.963H34.2339V768.748Z" fill="#B2EBF2"/>
<path d="M35.392 786.121H23.4243V767.59H35.392V786.121ZM25.3546 784.19H33.0757V769.906H25.3546V784.19Z" fill="#8D6E63"/>
<path d="M50.4461 768.748H40.4087V784.963H50.4461V768.748Z" fill="#FDD835"/>
<path d="M51.2191 786.121H39.2515V767.59H51.2191V786.121ZM41.1817 784.19H48.9028V769.906H41.1817V784.19Z" fill="#8D6E63"/>
<path d="M66.2759 768.748H56.2385V784.963H66.2759V768.748Z" fill="#B2EBF2"/>
<path d="M67.048 786.121H55.0803V767.59H67.048V786.121ZM57.0106 784.19H64.7317V769.906H57.0106V784.19Z" fill="#8D6E63"/>
<path d="M82.1021 768.748H72.0647V784.963H82.1021V768.748Z" fill="#B2EBF2"/>
<path d="M82.8761 786.121H70.9084V767.59H82.8761V786.121ZM73.2248 784.19H80.9458V769.906H73.2248V784.19Z" fill="#8D6E63"/>
<path d="M34.2347 785.349H24.1973V788.437H34.2347V785.349Z" fill="#B2EBF2"/>
<path d="M35.3917 789.595H23.4241V784.19H35.3917V789.595ZM25.3543 787.279H33.0754V786.121H25.3543V787.279Z" fill="#8D6E63"/>
<path d="M50.4456 785.349H40.4082V788.437H50.4456V785.349Z" fill="#B2EBF2"/>
<path d="M51.2186 789.595H39.251V784.19H51.2186V789.595ZM41.1812 787.279H48.9023V786.121H41.1812V787.279Z" fill="#8D6E63"/>
<path d="M66.2764 785.349H56.239V788.437H66.2764V785.349Z" fill="#B2EBF2"/>
<path d="M67.0485 789.595H55.0808V784.19H67.0485V789.595ZM57.0111 787.279H64.7321V786.121H57.0111V787.279Z" fill="#8D6E63"/>
<path d="M82.1026 785.349H72.0652V788.437H82.1026V785.349Z" fill="#B2EBF2"/>
<path d="M82.8754 789.595H70.9077V784.19H82.8754V789.595ZM73.224 787.279H80.9451V786.121H73.224V787.279Z" fill="#8D6E63"/>
<path d="M85.2992 827.422C85.2992 830.501 73.8302 833 59.6496 833C45.5134 833 34 830.501 34 827.422C34 824.343 45.4689 821.845 59.6496 821.845C73.8302 821.845 85.2992 824.299 85.2992 827.422Z" fill="black" fill-opacity="0.1"/>
<path d="M39.5005 827.5C39.5005 827.5 33.3335 825.727 35.734 819.97C38.1344 814.259 43.291 818.141 43.291 818.141C43.291 818.141 38.1344 813.902 42.1797 810.198C46.2249 806.495 47.3363 814.616 47.3363 814.616C47.3363 814.616 45.2914 804.844 54.1377 803.148C62.9839 801.497 65.5622 814.214 65.5622 814.214C65.5622 814.214 66.4957 804.62 70.5409 804.219C74.5862 803.862 70.5409 812.92 70.5409 812.92C70.5409 812.92 75.4752 805.156 82.7656 810.689C88.5005 815.042 84.9186 823.166 81.2097 827.333C77.5008 831.5 39.5005 827.5 39.5005 827.5Z" fill="#4B823D"/>
<path d="M38.6231 821.759C39.601 819.126 45.2021 819.885 45.2021 819.885C45.2021 819.885 42.2682 813.638 43.4685 812.879C44.6687 812.121 48.225 816.762 48.225 816.762C48.225 816.762 47.736 810.381 51.1589 807.703C54.5818 805.026 60.9386 807.48 64.4949 815.155C64.4949 815.155 64.8949 814.575 65.4728 813.906C64.9838 811.942 62.1388 801.635 54.1373 803.152C46.3579 804.624 46.9803 812.344 47.247 814.218C46.9803 812.612 45.6467 806.989 42.1793 810.202C38.1341 813.906 43.2907 818.145 43.2907 818.145C43.2907 818.145 38.1341 814.263 35.7336 819.974C33.3331 825.686 39.4232 827.382 39.4232 827.382C39.4232 827.382 37.6451 824.347 38.6231 821.759Z" fill="#6FB259"/>
<path d="M83.9992 808.726C76.3521 802.983 71.1763 811.041 71.1763 811.041C71.1763 811.041 75.4195 801.64 71.1763 802.011C67.4926 802.335 66.2803 809.884 66.0005 811.875C66.9797 810.764 68.2853 809.559 69.0314 810.208C70.2903 811.273 69.8241 814.376 69.8241 814.376C69.8241 814.376 75.0931 808.818 79.2897 810.995C83.4863 813.172 82.3672 826 82.3672 826C82.3672 826 91.5997 814.468 83.9992 808.726Z" fill="#6FB259"/>
<path opacity="0.1" d="M91.1956 872.506C91.1956 874.365 87.4118 875.874 82.7426 875.874C78.0733 875.874 74.2896 874.365 74.2896 872.506C74.2896 870.648 78.0733 869.139 82.7426 869.139C87.4118 869.139 91.1956 870.648 91.1956 872.506Z" fill="black"/>
<path d="M80.0592 850.526C80.0592 850.526 70.1303 847.159 67.8225 839.967C65.4879 832.775 67.9835 822.539 77.1074 819.01C86.2312 815.482 97.8508 821.569 98.468 831.482C99.0852 841.395 92.8863 848.102 84.7553 850.526H80.0592Z" fill="#94C85B"/>
<path d="M98.4677 831.482C98.1725 826.93 95.5695 823.185 91.9468 820.788C96.5624 828.088 92.6982 841.772 83.2523 844.196C73.9406 846.593 68.9225 842.203 68.7615 842.068C72.089 847.806 80.059 850.499 80.059 850.499H84.7551C92.8592 848.129 99.0849 841.422 98.4677 831.482Z" fill="#84AF4B"/>
<path d="M80.864 873.315C80.864 873.315 81.5617 848.452 81.3739 847.59C81.1592 846.728 78.6636 842.822 78.6636 842.822C78.6636 842.822 81.8838 846.378 82.2058 844.896C82.501 843.415 83.1182 832.29 83.1182 832.29C83.1182 832.29 83.3328 843.55 84.1379 843.442C84.9429 843.307 88.2705 838.917 88.2705 838.917C88.2705 838.917 84.4331 844.789 84.4331 846.998C84.4331 849.206 84.7283 873.315 84.7283 873.315H80.864Z" fill="#695020"/>
<path d="M65.9977 888.873C70.6661 888.873 74.4507 887.366 74.4507 885.506C74.4507 883.647 70.6661 882.139 65.9977 882.139C61.3292 882.139 57.5447 883.647 57.5447 885.506C57.5447 887.366 61.3292 888.873 65.9977 888.873Z" fill="black" fill-opacity="0.1"/>
<path d="M63.8777 869.048C63.8777 869.048 60.8722 871.23 58.8596 868.294C58.8596 868.294 55.5052 869.129 54.7538 866.031C54.7538 866.031 50.7554 865.708 50.9164 862.61C50.9164 862.61 46.0593 860.267 49.2527 855.822C49.2527 855.822 46.1667 853.074 49.682 849.977C49.682 849.977 46.9985 845.963 51.6947 844.778C51.6947 844.778 52.124 840.01 56.7933 841.088C56.7933 841.088 58.0545 837.074 62.5628 838.583C62.5628 838.583 66.6148 835.566 68.9226 839.579C68.9226 839.579 73.3504 838.987 74.1823 842.677C74.1823 842.677 78.449 843.27 78.0197 847.526C78.0197 847.526 81.2935 850.542 79.2004 854.125C79.2004 854.125 81.2935 860.105 76.7584 860.644C76.7584 860.644 76.8926 863.283 74.236 864.469C74.236 864.469 73.7529 867.674 70.9084 867.162C70.9084 867.162 68.7348 869.587 67.1515 868.24L63.8777 869.048Z" fill="#B4CB34"/>
<path d="M77.9659 847.553C78.3953 843.297 74.1285 842.704 74.1285 842.704C76.2485 851.916 71.0693 863.661 63.0189 864.711C54.9684 865.762 50.9164 862.61 50.9164 862.61C50.7553 865.708 54.7537 866.031 54.7537 866.031C55.5051 869.129 58.8595 868.294 58.8595 868.294C60.8721 871.23 63.8776 869.048 63.8776 869.048L67.1246 868.294C68.7079 869.641 70.8815 867.216 70.8815 867.216C73.726 867.728 74.209 864.523 74.209 864.523C76.8925 863.364 76.7315 860.698 76.7315 860.698C81.2397 860.159 79.1735 854.179 79.1735 854.179C81.2397 850.569 77.9659 847.553 77.9659 847.553Z" fill="#AAB72C"/>
<path d="M58.8325 861.344C58.8325 861.344 63.5018 861.829 63.8506 864.253C64.1727 866.677 63.3408 886.287 63.3408 886.287H68.3589C68.3589 886.287 66.1853 864.253 66.9367 862.637C67.688 861.048 70.1032 860.132 70.1032 860.132C70.1032 860.132 67.3392 860.051 66.4268 860.886C65.5144 861.721 64.3337 861.937 63.0724 861.721C61.838 861.559 60.6036 861.209 58.8325 861.344Z" fill="#695020"/>
<path d="M118.179 912.198C118.179 914.885 112.71 917.065 105.961 917.065C99.2122 917.065 93.7432 914.885 93.7432 912.198C93.7432 909.512 99.2122 907.331 105.961 907.331C112.71 907.331 118.179 909.512 118.179 912.198Z" fill="black" fill-opacity="0.1"/>
<path d="M127.489 860.377C125.588 853.641 119.382 850.487 113.719 850.487C111.431 844.608 103.906 841.415 97.7776 843.79C90.6795 846.516 88.7401 854.497 90.5631 860.104C88.4298 861.038 86.5292 862.674 85.1329 865.166C81.9523 870.772 86.0638 878.209 92.2697 879.571C97.9327 880.817 102.587 877.041 104.333 872.797C106.931 875.639 110.616 877.508 115.309 877.664C123.688 877.858 129.738 868.436 127.489 860.377Z" fill="#88C881"/>
<path d="M112.982 870.655C107.706 871.162 104.642 868.397 104.642 868.397C104.642 868.397 101.035 872.33 93.7818 872.875C87.0716 873.381 84.3953 869.098 84.0462 868.475C83.5419 873.342 87.2267 878.442 92.2303 879.571C97.8933 880.817 102.548 877.041 104.293 872.797C106.892 875.639 110.577 877.508 115.27 877.664C123.726 877.936 129.777 868.514 127.527 860.455C125.626 853.719 119.42 850.565 113.757 850.565C123.92 857.885 118.257 870.149 112.982 870.655Z" fill="#6AA562"/>
<path d="M102.315 913.367C102.315 913.367 103.324 877.43 103.052 876.184C102.742 874.938 99.0959 869.293 99.0959 869.293C99.0959 869.293 103.75 874.432 104.216 872.291C104.643 870.149 105.535 854.069 105.535 854.069C105.535 854.069 105.845 870.344 107.009 870.188C108.172 869.993 112.982 863.647 112.982 863.647C112.982 863.647 107.435 872.135 107.435 875.327C107.435 878.52 107.862 913.367 107.862 913.367H102.315Z" fill="#695020"/>
<path d="M242.701 370.422C242.701 373.501 254.17 376 268.35 376C282.487 376 294 373.501 294 370.422C294 367.343 282.531 364.845 268.35 364.845C254.17 364.845 242.701 367.299 242.701 370.422Z" fill="black" fill-opacity="0.1"/>
<path d="M288.499 370.5C288.499 370.5 294.667 368.727 292.266 362.97C289.866 357.259 284.709 361.141 284.709 361.141C284.709 361.141 289.866 356.902 285.82 353.198C281.775 349.495 280.664 357.616 280.664 357.616C280.664 357.616 282.709 347.844 273.862 346.148C265.016 344.497 262.438 357.214 262.438 357.214C262.438 357.214 261.504 347.62 257.459 347.219C253.414 346.862 257.459 355.92 257.459 355.92C257.459 355.92 252.525 348.156 245.234 353.689C239.5 358.042 243.081 366.166 246.79 370.333C250.499 374.5 288.499 370.5 288.499 370.5Z" fill="#4B823D"/>
<path d="M289.377 364.759C288.399 362.126 282.798 362.885 282.798 362.885C282.798 362.885 285.732 356.638 284.532 355.879C283.331 355.121 279.775 359.762 279.775 359.762C279.775 359.762 280.264 353.381 276.841 350.703C273.418 348.026 267.061 350.48 263.505 358.155C263.505 358.155 263.105 357.575 262.527 356.906C263.016 354.942 265.861 344.635 273.863 346.152C281.642 347.624 281.02 355.344 280.753 357.218C281.02 355.612 282.353 349.989 285.821 353.202C289.866 356.906 284.709 361.145 284.709 361.145C284.709 361.145 289.866 357.263 292.266 362.974C294.667 368.686 288.577 370.382 288.577 370.382C288.577 370.382 290.355 367.347 289.377 364.759Z" fill="#6FB259"/>
<path d="M244.001 351.726C251.648 345.983 256.824 354.041 256.824 354.041C256.824 354.041 252.58 344.64 256.824 345.011C260.507 345.335 261.72 352.884 262 354.875C261.02 353.764 259.715 352.559 258.969 353.208C257.71 354.273 258.176 357.376 258.176 357.376C258.176 357.376 252.907 351.818 248.71 353.995C244.514 356.172 245.633 369 245.633 369C245.633 369 236.4 357.468 244.001 351.726Z" fill="#6FB259"/>
<path d="M231 393.831C231 394.935 226.752 395.831 221.5 395.831C216.264 395.831 212 394.935 212 393.831C212 392.727 216.248 391.831 221.5 391.831C226.752 391.831 231 392.711 231 393.831Z" fill="black" fill-opacity="0.1"/>
<path d="M343.768 499.134H239.823V627.769H343.768V499.134Z" fill="#FF7043"/>
<path d="M343.768 566.5H239.823V574.12H343.768V566.5Z" fill="#D84315"/>
<path d="M263.904 537.846H248.358V552.783H263.904V537.846Z" fill="#875E51"/>
<path d="M262.378 539.371H250.185V550.954H262.378V539.371Z" fill="#B2EBF2"/>
<path d="M263.903 543.638H248.357V545.162H263.903V543.638Z" fill="#875E51"/>
<path d="M265.428 536.322H246.834V538.761H265.428V536.322Z" fill="#875E51"/>
<path d="M265.428 550.039H246.834V552.478H265.428V550.039Z" fill="#875E51"/>
<path d="M284.938 537.846H269.392V552.783H284.938V537.846Z" fill="#875E51"/>
<path d="M283.412 539.371H271.219V550.954H283.412V539.371Z" fill="#B2EBF2"/>
<path d="M284.938 543.638H269.392V545.162H284.938V543.638Z" fill="#875E51"/>
<path d="M286.462 536.322H267.868V538.761H286.462V536.322Z" fill="#875E51"/>
<path d="M286.463 550.039H267.868V552.478H286.463V550.039Z" fill="#875E51"/>
<path d="M314.2 537.846H298.654V552.783H314.2V537.846Z" fill="#875E51"/>
<path d="M312.674 539.371H300.481V550.954H312.674V539.371Z" fill="#B2EBF2"/>
<path d="M314.2 543.638H298.654V545.162H314.2V543.638Z" fill="#875E51"/>
<path d="M315.724 536.322H297.13V538.761H315.724V536.322Z" fill="#875E51"/>
<path d="M315.724 550.039H297.13V552.478H315.724V550.039Z" fill="#875E51"/>
<path d="M335.234 537.846H319.688V552.783H335.234V537.846Z" fill="#875E51"/>
<path d="M333.708 539.371H321.515V550.954H333.708V539.371Z" fill="#FDD835"/>
<path d="M335.234 543.638H319.688V545.162H335.234V543.638Z" fill="#875E51"/>
<path d="M336.758 536.322H318.163V538.761H336.758V536.322Z" fill="#875E51"/>
<path d="M336.758 550.039H318.164V552.478H336.758V550.039Z" fill="#875E51"/>
<path d="M284.632 516.814H248.358V531.75H284.632V516.814Z" fill="#875E51"/>
<path d="M282.801 518.338H250.185V529.921H282.801V518.338Z" fill="#FDD835"/>
<path d="M284.631 522.605H248.357V524.129H284.631V522.605Z" fill="#875E51"/>
<path d="M286.156 515.289H246.834V517.728H286.156V515.289Z" fill="#875E51"/>
<path d="M286.156 529.006H246.834V531.445H286.156V529.006Z" fill="#875E51"/>
<path d="M335.235 516.814H298.961V531.75H335.235V516.814Z" fill="#875E51"/>
<path d="M333.405 518.338H300.789V529.921H333.405V518.338Z" fill="#B2EBF2"/>
<path d="M335.235 522.605H298.961V524.129H335.235V522.605Z" fill="#875E51"/>
<path d="M336.758 515.289H297.436V517.728H336.758V515.289Z" fill="#875E51"/>
<path d="M336.759 529.006H297.437V531.445H336.759V529.006Z" fill="#875E51"/>
<path d="M264.211 592.715H248.665V611.004H264.211V592.715Z" fill="#875E51"/>
<path d="M262.381 594.544H250.188V609.48H262.381V594.544Z" fill="#B2EBF2"/>
<path d="M264.21 598.506H248.664V600.031H264.21V598.506Z" fill="#875E51"/>
<path d="M265.734 591.495H247.139V593.934H265.734V591.495Z" fill="#875E51"/>
<path d="M265.735 608.565H247.14V611.004H265.735V608.565Z" fill="#875E51"/>
<path d="M334.93 592.715H319.384V611.004H334.93V592.715Z" fill="#875E51"/>
<path d="M333.404 594.544H321.211V609.48H333.404V594.544Z" fill="#FDD835"/>
<path d="M334.929 598.506H319.383V600.031H334.929V598.506Z" fill="#875E51"/>
<path d="M336.757 591.495H318.162V593.934H336.757V591.495Z" fill="#875E51"/>
<path d="M336.757 608.565H318.162V611.004H336.757V608.565Z" fill="#875E51"/>
<path d="M310.239 589.057C310.239 589.057 301.399 586.008 291.95 586.008C281.586 586.008 273.66 589.057 273.66 589.057V622.587H310.544V589.057H310.239Z" fill="#875E51"/>
<path d="M308.412 591.191C308.412 591.191 300.487 588.447 291.647 588.447C282.197 588.447 274.881 591.191 274.881 591.191V621.673H308.412V591.191Z" fill="#A1887F"/>
<path d="M303.536 594.544H280.369V603.384H303.536V594.544Z" fill="#B2EBF2"/>
<path d="M304.144 604.298H279.454V593.934H304.144V604.298ZM280.978 602.774H302.316V595.458H280.978V602.774Z" fill="#8D6E63"/>
<path d="M348.342 501.268H235.558V510.412H348.342V501.268Z" fill="#875E51"/>
<path d="M352 497H231.29V501.572H352V497Z" fill="#A1887F"/>
<path d="M346.513 621.673H237.386V627.769H346.513V621.673Z" fill="#875E51"/>
<path d="M244.397 579.302V584.18C244.397 586.313 246.226 587.837 248.665 587.837C251.103 587.837 252.932 586.313 252.932 584.18V579.302H244.397Z" fill="#F7CB16"/>
<path d="M256.895 564.061H248.97L244.397 579.302H253.237L256.895 564.061Z" fill="#FDD835"/>
<path d="M253.239 579.302V584.18C253.239 586.313 255.068 587.837 257.506 587.837C259.945 587.837 261.774 586.313 261.774 584.18V579.302H253.239Z" fill="#FFF8E1"/>
<path d="M261.774 579.302L264.822 564.061H256.897L253.239 579.302H261.774Z" fill="white"/>
<path d="M261.772 579.302V584.18C261.772 586.313 263.601 587.837 266.04 587.837C268.478 587.837 270.307 586.313 270.307 584.18V579.302H261.772Z" fill="#F7CB16"/>
<path d="M270.307 579.302L272.441 564.061H264.82L261.772 579.302H270.307Z" fill="#FDD835"/>
<path d="M278.842 579.302L280.366 564.061H272.441L270.307 579.302H278.842Z" fill="white"/>
<path d="M270.307 579.302V584.18C270.307 586.313 272.136 587.837 274.574 587.837C277.013 587.837 278.842 586.313 278.842 584.18V579.302H270.307Z" fill="#FFF8E1"/>
<path d="M287.377 579.302L288.291 564.061H280.366L278.842 579.302H287.377Z" fill="#FDD835"/>
<path d="M278.842 579.302V584.18C278.842 586.313 280.67 587.837 283.109 587.837C285.548 587.837 287.377 586.313 287.377 584.18V579.302H278.842Z" fill="#F7CB16"/>
<path d="M296.216 579.302L295.302 564.061H288.291L287.376 579.302H296.216Z" fill="white"/>
<path d="M287.376 579.302V584.18C287.376 586.313 289.205 587.837 291.644 587.837C294.082 587.837 295.911 586.313 295.911 584.18V579.302H287.376Z" fill="#FFF8E1"/>
<path d="M296.217 579.302V584.18C296.217 586.313 298.045 587.837 300.484 587.837C302.923 587.837 304.752 586.313 304.752 584.18V579.302H296.217Z" fill="#F7CB16"/>
<path d="M304.752 579.302L303.228 564.061H295.302L296.217 579.302H304.752Z" fill="#FDD835"/>
<path d="M304.751 579.302V584.18C304.751 586.313 306.58 587.837 309.018 587.837C311.457 587.837 313.286 586.313 313.286 584.18V579.302H304.751Z" fill="#FFF8E1"/>
<path d="M313.287 579.302L311.153 564.061H303.228L304.752 579.302H313.287Z" fill="white"/>
<path d="M321.823 579.302L318.775 564.061H311.155L313.288 579.302H321.823Z" fill="#FDD835"/>
<path d="M313.287 579.302V584.18C313.287 586.313 315.116 587.837 317.554 587.837C319.993 587.837 321.822 586.313 321.822 584.18V579.302H313.287Z" fill="#F7CB16"/>
<path d="M330.664 579.302L326.702 564.061H318.776L321.825 579.302H330.664Z" fill="white"/>
<path d="M321.823 579.302V584.179C321.823 586.313 323.651 587.837 326.09 587.837C328.529 587.837 330.358 586.313 330.358 584.179V579.302H321.823Z" fill="#FFF8E1"/>
<path d="M330.662 579.302V584.18C330.662 586.313 332.491 587.837 334.929 587.837C337.368 587.837 339.197 586.313 339.197 584.18V579.302H330.662Z" fill="#F7CB16"/>
<path d="M339.196 579.302L334.624 564.061H326.698L330.661 579.302H339.196Z" fill="#FDD835"/>
<path d="M348.342 560.403H235.558V566.5H348.342V560.403Z" fill="#875E51"/>
<path d="M332 642.284C344.703 642.284 355 640.045 355 637.284C355 634.522 344.703 632.284 332 632.284C319.297 632.284 309 634.522 309 637.284C309 640.045 319.297 642.284 332 642.284Z" fill="black" fill-opacity="0.1"/>
<path d="M317.842 637.126C317.842 637.126 309.209 633.453 315.704 628.254C315.704 628.254 308.017 621.651 313.237 617.36C318.499 613.11 323.967 620.207 323.967 620.207C323.967 620.207 319.239 613.564 325.817 612.161C332.517 610.758 331.407 619.01 331.407 619.01C331.407 619.01 332.435 609.643 339.794 613.687C346.453 617.36 344.028 623.137 339.218 624.004C339.218 624.004 346.289 621.775 347.481 626.149C348.673 630.523 342.054 631.844 342.054 631.844C342.054 631.844 349.701 630.193 350.893 633.742C352.085 637.291 342.959 637.167 342.959 637.167H317.842V637.126Z" fill="#94C85B"/>
<path d="M316.279 630.275C318.334 627.511 319.444 627.263 319.444 627.263C319.444 627.263 315.457 624.787 315.662 621.899C315.868 619.01 324.254 622.848 324.254 622.848C324.254 622.848 323.555 617.071 326.844 616.534C330.132 615.998 331.201 620.95 331.201 620.95C331.201 620.95 333.586 615.585 336.463 615.874C339.341 616.163 342.629 620.331 338.231 624.622C338.231 624.622 343.534 624.251 344.192 626.52C344.808 628.79 340.492 632.38 340.492 632.38C340.492 632.38 348.796 632.215 348.261 636.589C349.988 636.135 351.386 635.268 350.851 633.742C349.7 630.317 342.547 631.72 342.054 631.843C342.506 631.761 348.59 630.399 347.439 626.149C346.535 622.806 342.177 623.343 340.204 623.756C344.315 622.353 346 617.153 339.793 613.728C332.722 609.849 331.53 618.309 331.448 619.01C331.53 618.35 332.311 610.84 325.857 612.202C319.28 613.605 324.007 620.248 324.007 620.248C324.007 620.248 318.54 613.151 313.278 617.401C308.016 621.651 315.744 628.295 315.744 628.295C309.208 633.535 317.882 637.167 317.882 637.167C317.882 637.167 314.223 632.999 316.279 630.275Z" fill="#B4E573"/>
<path d="M256 648L259.5 648L259.5 643L228 643L228 665.5L246 665.5L246 658C246 652.477 250.477 648 256 648Z" fill="#DCD0BE"/>
<path d="M237 862C197.235 862 165 829.765 165 790" stroke="#E9E9E9" stroke-width="78"/>
<path d="M237 862C197.235 862 165 829.765 165 790" stroke="#A9B2CA" stroke-width="66"/>
<path d="M237 862C197.235 862 165 829.765 165 790" stroke="white" stroke-width="2"/>
<path opacity="0.1" d="M347.196 692.506C347.196 694.365 343.412 695.874 338.743 695.874C334.073 695.874 330.29 694.365 330.29 692.506C330.29 690.648 334.073 689.139 338.743 689.139C343.412 689.139 347.196 690.648 347.196 692.506Z" fill="black"/>
<path d="M336.059 670.526C336.059 670.526 326.13 667.159 323.823 659.967C321.488 652.775 323.984 642.539 333.107 639.01C342.231 635.482 353.851 641.569 354.468 651.482C355.085 661.395 348.886 668.102 340.755 670.526H336.059Z" fill="#94C85B"/>
<path d="M354.468 651.482C354.173 646.93 351.57 643.185 347.947 640.788C352.562 648.088 348.698 661.772 339.252 664.196C329.941 666.593 324.922 662.203 324.761 662.068C328.089 667.806 336.059 670.499 336.059 670.499H340.755C348.859 668.129 355.085 661.422 354.468 651.482Z" fill="#84AF4B"/>
<path d="M336.864 693.315C336.864 693.315 337.562 668.452 337.374 667.59C337.159 666.728 334.664 662.822 334.664 662.822C334.664 662.822 337.884 666.378 338.206 664.896C338.501 663.415 339.118 652.29 339.118 652.29C339.118 652.29 339.333 663.55 340.138 663.442C340.943 663.307 344.27 658.917 344.27 658.917C344.27 658.917 340.433 664.789 340.433 666.998C340.433 669.206 340.728 693.315 340.728 693.315H336.864Z" fill="#695020"/>
<path d="M321.998 708.873C326.666 708.873 330.451 707.366 330.451 705.506C330.451 703.647 326.666 702.139 321.998 702.139C317.329 702.139 313.545 703.647 313.545 705.506C313.545 707.366 317.329 708.873 321.998 708.873Z" fill="black" fill-opacity="0.1"/>
<path d="M319.878 689.048C319.878 689.048 316.872 691.23 314.86 688.294C314.86 688.294 311.505 689.129 310.754 686.031C310.754 686.031 306.755 685.708 306.916 682.61C306.916 682.61 302.059 680.267 305.253 675.822C305.253 675.822 302.167 673.074 305.682 669.977C305.682 669.977 302.999 665.963 307.695 664.778C307.695 664.778 308.124 660.01 312.793 661.088C312.793 661.088 314.055 657.074 318.563 658.583C318.563 658.583 322.615 655.566 324.923 659.579C324.923 659.579 329.35 658.987 330.182 662.677C330.182 662.677 334.449 663.27 334.02 667.526C334.02 667.526 337.294 670.542 335.2 674.125C335.2 674.125 337.294 680.105 332.758 680.644C332.758 680.644 332.893 683.283 330.236 684.469C330.236 684.469 329.753 687.674 326.908 687.162C326.908 687.162 324.735 689.587 323.152 688.24L319.878 689.048Z" fill="#B4CB34"/>
<path d="M333.966 667.553C334.395 663.297 330.129 662.704 330.129 662.704C332.248 671.916 327.069 683.661 319.019 684.711C310.968 685.762 306.916 682.61 306.916 682.61C306.755 685.708 310.754 686.031 310.754 686.031C311.505 689.129 314.859 688.294 314.859 688.294C316.872 691.23 319.878 689.048 319.878 689.048L323.125 688.294C324.708 689.641 326.881 687.216 326.881 687.216C329.726 687.728 330.209 684.523 330.209 684.523C332.893 683.364 332.731 680.698 332.731 680.698C337.24 680.159 335.173 674.179 335.173 674.179C337.24 670.569 333.966 667.553 333.966 667.553Z" fill="#AAB72C"/>
<path d="M314.833 681.344C314.833 681.344 319.502 681.829 319.851 684.253C320.173 686.677 319.341 706.287 319.341 706.287H324.359C324.359 706.287 322.185 684.253 322.937 682.637C323.688 681.048 326.103 680.132 326.103 680.132C326.103 680.132 323.339 680.051 322.427 680.886C321.514 681.721 320.334 681.937 319.072 681.721C317.838 681.559 316.604 681.209 314.833 681.344Z" fill="#695020"/>
<path d="M374.179 732.198C374.179 734.885 368.71 737.065 361.961 737.065C355.212 737.065 349.743 734.885 349.743 732.198C349.743 729.512 355.212 727.331 361.961 727.331C368.71 727.331 374.179 729.512 374.179 732.198Z" fill="black" fill-opacity="0.1"/>
<path d="M383.489 680.377C381.588 673.641 375.382 670.487 369.719 670.487C367.431 664.608 359.906 661.415 353.778 663.79C346.679 666.516 344.74 674.497 346.563 680.104C344.43 681.038 342.529 682.674 341.133 685.166C337.952 690.772 342.064 698.209 348.27 699.571C353.933 700.817 358.587 697.041 360.333 692.797C362.931 695.639 366.616 697.508 371.309 697.664C379.688 697.858 385.738 688.436 383.489 680.377Z" fill="#88C881"/>
<path d="M368.982 690.655C363.706 691.162 360.642 688.397 360.642 688.397C360.642 688.397 357.035 692.33 349.782 692.875C343.072 693.381 340.395 689.098 340.046 688.475C339.542 693.342 343.227 698.442 348.23 699.571C353.893 700.817 358.548 697.041 360.293 692.797C362.892 695.639 366.577 697.508 371.27 697.664C379.726 697.936 385.777 688.514 383.527 680.455C381.626 673.719 375.42 670.565 369.757 670.565C379.92 677.885 374.257 690.149 368.982 690.655Z" fill="#6AA562"/>
<path d="M358.315 733.367C358.315 733.367 359.324 697.43 359.052 696.184C358.742 694.938 355.096 689.293 355.096 689.293C355.096 689.293 359.75 694.432 360.216 692.291C360.643 690.149 361.535 674.069 361.535 674.069C361.535 674.069 361.845 690.344 363.009 690.188C364.172 689.993 368.982 683.647 368.982 683.647C368.982 683.647 363.435 692.135 363.435 695.327C363.435 698.52 363.862 733.367 363.862 733.367H358.315Z" fill="#695020"/>
<path d="M372.414 722.713H237.741V704.6H360.88L372.414 722.713Z" fill="#875E51"/>
<g opacity="0.36">
<path opacity="0.36" d="M359.484 706.864H235.559V708.158H359.484V706.864Z" fill="#6D4C41"/>
</g>
<g opacity="0.36">
<path opacity="0.36" d="M359.484 711.069H235.559V712.363H359.484V711.069Z" fill="#6D4C41"/>
</g>
<g opacity="0.36">
<path opacity="0.36" d="M359.484 714.95H235.559V716.244H359.484V714.95Z" fill="#6D4C41"/>
</g>
<g opacity="0.36">
<path opacity="0.36" d="M359.484 719.155H235.559V720.449H359.484V719.155Z" fill="#6D4C41"/>
</g>
<path d="M372.413 722.713H237.741V791.93H372.413V722.713Z" fill="#E53935"/>
<path d="M291.673 669.021H265.798V791.93H291.673V669.021Z" fill="#FF7043"/>
<path d="M287.931 669.021H269.227V791.93H287.931V669.021Z" fill="#E53935"/>
<path d="M372.413 781.58H237.741V794.518H372.413V781.58Z" fill="#FF7043"/>
<path d="M286.372 666.757H270.785V645.086C270.785 640.558 274.214 637 278.578 637C282.943 637 286.372 640.558 286.372 645.086V666.757Z" fill="#FF7043"/>
<path d="M296.349 664.493H260.811V669.021H296.349V664.493Z" fill="#875E51"/>
<path d="M296.349 643.146H260.811V647.674H296.349V643.146Z" fill="#875E51"/>
<path d="M266.422 645.41H264.551V666.757H266.422V645.41Z" fill="#8D6E63"/>
<path d="M292.607 645.41H290.736V666.757H292.607V645.41Z" fill="#8D6E63"/>
<path d="M282.944 647.674H273.591V664.493H282.944V647.674Z" fill="#FFB74D"/>
<path d="M286.372 674.52H270.785V686.164H286.372V674.52Z" fill="#F4511E"/>
<path d="M285.748 675.49H271.72V683.252H285.748V675.49Z" fill="#FDD835"/>
<path d="M286.372 683.899H271.097V674.843H286.372V683.899ZM272.344 682.606H284.814V676.46H272.344V682.606Z" fill="#6D4C41"/>
<path d="M285.748 683.252H271.72V685.193H285.748V683.252Z" fill="#6D4C41"/>
<path d="M286.372 685.84H271.097V682.606H286.372V685.84ZM272.344 684.223H284.813V683.899H272.344V684.223Z" fill="#6D4C41"/>
<path d="M285.748 690.045H271.72V697.807H285.748V690.045Z" fill="#FDD835"/>
<path d="M286.372 698.454H271.097V689.398H286.372V698.454ZM272.344 696.837H284.814V690.692H272.344V696.837Z" fill="#6D4C41"/>
<path d="M285.748 697.484H271.72V699.424H285.748V697.484Z" fill="#6D4C41"/>
<path d="M286.372 700.072H271.097V696.837H286.372V700.072ZM272.344 698.778H284.813V698.454H272.344V698.778Z" fill="#6D4C41"/>
<path d="M285.748 704.277H271.72V712.04H285.748V704.277Z" fill="#FDD835"/>
<path d="M286.372 712.686H271.097V703.63H286.372V712.686ZM272.344 711.393H284.814V705.247H272.344V711.393Z" fill="#6D4C41"/>
<path d="M285.748 712.04H271.72V713.98H285.748V712.04Z" fill="#6D4C41"/>
<path d="M286.372 714.627H271.097V711.393H286.372V714.627ZM272.344 713.333H284.813V713.01H272.344V713.333Z" fill="#6D4C41"/>
<path d="M285.748 718.832H271.72V726.595H285.748V718.832Z" fill="#FDD835"/>
<path d="M286.372 727.241H271.097V718.185H286.372V727.241ZM272.344 725.948H284.814V719.802H272.344V725.948Z" fill="#6D4C41"/>
<path d="M285.748 726.595H271.72V728.535H285.748V726.595Z" fill="#6D4C41"/>
<path d="M286.372 729.182H271.097V725.948H286.372V729.182ZM272.344 727.565H284.813V727.242H272.344V727.565Z" fill="#6D4C41"/>
<path d="M307.571 732.74H299.154V766.055H307.571V732.74Z" fill="#FDD835"/>
<path d="M308.195 766.702H298.219V732.093H308.195V766.702ZM299.778 765.084H306.948V733.387H299.778V765.084Z" fill="#6D4C41"/>
<path d="M307.571 765.731H299.154V767.672H307.571V765.731Z" fill="#6D4C41"/>
<path d="M308.195 768.319H298.219V765.084H308.195V768.319ZM299.778 767.025H306.948V766.701H299.778V767.025Z" fill="#6D4C41"/>
<path d="M360.255 750.206C360.255 750.206 350.902 744.707 338.744 744.707C324.404 744.707 317.234 750.206 317.234 750.206V791.931H360.566V750.206H360.255Z" fill="#6D4C41"/>
<path d="M338.744 742.443C322.534 742.443 314.428 748.589 314.428 748.589V774.141V795.165H363.06V774.141V748.589C363.06 748.589 352.461 742.443 338.744 742.443Z" fill="#6D4C41"/>
<path d="M360.255 766.378H316.923V791.283H360.255V766.378Z" fill="#00838F"/>
<path d="M242.417 759.586V774.141V792.577H261.745V774.141V759.586H242.417Z" fill="#6D4C41"/>
<path d="M259.251 762.173H244.599V790.96H259.251V762.173Z" fill="#875E51"/>
<path d="M376.154 792.254H234V797.105H376.154V792.254Z" fill="#6D4C41"/>
<path d="M285.748 734.68H271.72V761.85H285.748V734.68Z" fill="#FDD835"/>
<path d="M286.372 762.497H271.097V734.034H286.372V762.497ZM272.344 761.203H284.814V735.651H272.344V761.203Z" fill="#6D4C41"/>
<path d="M285.748 761.85H271.72V763.791H285.748V761.85Z" fill="#6D4C41"/>
<path d="M286.372 764.437H271.097V761.203H286.372V764.437ZM272.344 763.144H284.813V762.82H272.344V763.144Z" fill="#6D4C41"/>
<path d="M279.202 735.004H277.955V761.85H279.202V735.004Z" fill="#6D4C41"/>
<path d="M256.756 776.405C256.756 777.052 256.444 777.375 255.821 777.375C255.197 777.375 254.886 777.052 254.886 776.405C254.886 775.758 255.197 775.435 255.821 775.435C256.133 775.435 256.756 775.758 256.756 776.405Z" fill="#6D4C41"/>
<path d="M255.509 778.022C254.574 778.022 253.951 777.375 253.951 776.405C253.951 775.435 254.574 774.788 255.509 774.788C256.445 774.788 257.068 775.435 257.068 776.405C257.38 777.375 256.445 778.022 255.509 778.022ZM255.509 776.082C255.198 776.082 255.198 776.082 255.198 776.405C255.198 776.728 255.821 776.728 255.821 776.405C255.821 776.082 255.821 776.082 255.509 776.082Z" fill="#6D4C41"/>
<path d="M361.19 727.565H315.987V737.592H361.19V727.565Z" fill="#FFB74D"/>
<path d="M320.664 734.358H319.729V730.153H322.223V730.799H320.664V731.77H321.911V732.417H320.664V734.358Z" fill="white"/>
<path d="M323.158 734.357V730.152H324.093V734.357H323.158Z" fill="white"/>
<path d="M325.652 732.74V734.357H324.717V730.152H325.964C326.588 730.152 326.899 730.152 327.211 730.476C327.523 730.799 327.523 731.123 327.523 731.446C327.523 731.77 327.523 731.77 327.211 732.093C327.211 732.417 326.899 732.417 326.588 732.417C327.211 733.387 327.523 734.034 327.835 734.357H326.899L325.964 732.74H325.652ZM325.652 732.093C326.276 732.093 326.276 732.093 326.588 732.093L326.899 731.77C326.899 731.446 326.899 731.446 326.588 731.446C326.588 731.446 326.276 731.446 325.964 731.446H325.652V732.093Z" fill="white"/>
<path d="M331.264 734.357H328.77V730.152H331.264V730.799H329.705V731.77H330.952V732.417H329.705V733.387H331.264V734.357Z" fill="white"/>
<path d="M335.94 733.064C335.94 733.387 335.94 733.71 335.628 734.034C335.316 734.357 335.004 734.357 334.381 734.357C334.069 734.357 333.446 734.357 333.134 734.034V733.064C333.446 733.064 333.757 733.387 333.757 733.387C334.069 733.387 334.069 733.387 334.381 733.387C334.693 733.387 334.693 733.387 334.693 733.387V733.064C334.693 733.064 334.693 733.064 334.693 732.74C334.693 732.74 334.693 732.74 334.381 732.417C334.381 732.417 334.069 732.417 333.757 732.093C333.446 732.093 333.446 731.77 333.134 731.77L332.822 731.446C332.822 731.446 332.822 731.123 332.822 730.799C332.822 730.476 332.822 730.153 333.134 729.829C333.446 729.506 333.757 729.506 334.069 729.506C334.381 729.506 334.381 729.506 334.693 729.506C335.004 729.506 335.004 729.506 335.316 729.829L335.004 730.476C334.693 730.476 334.693 730.476 334.381 730.153H334.069C333.757 730.153 333.757 730.153 333.757 730.153V730.476C333.757 730.476 333.757 730.476 333.757 730.799C333.757 730.799 333.757 730.799 334.069 731.123C334.069 731.123 334.381 731.123 334.693 731.446C335.004 731.77 335.316 731.77 335.628 732.093C335.94 732.74 335.94 732.74 335.94 733.064Z" fill="white"/>
<path d="M338.122 734.357H337.187V730.799H335.94V730.152H339.057V730.799H337.81V734.357H338.122Z" fill="white"/>
<path d="M342.486 734.357L342.175 733.387H340.616L340.304 734.357H339.369L340.928 730.152H341.863L343.422 734.357H342.486ZM341.863 732.417C341.551 731.446 341.551 731.123 341.551 730.799V730.476C341.551 730.799 341.239 731.446 340.928 732.417H341.863Z" fill="white"/>
<path d="M345.604 734.357H344.669V730.799H343.422V730.152H346.539V730.799H345.292V734.357H345.604Z" fill="white"/>
<path d="M347.162 734.357V730.152H348.097V734.357H347.162Z" fill="white"/>
<path d="M353.085 732.093C353.085 732.74 352.773 733.387 352.461 733.71C352.149 734.034 351.526 734.357 350.903 734.357C350.279 734.357 349.656 734.034 349.344 733.71C349.032 733.387 348.72 732.74 348.72 732.093C348.72 731.446 349.032 730.799 349.344 730.476C349.656 730.152 350.279 729.829 350.903 729.829C351.526 729.829 352.149 730.152 352.461 730.476C352.773 730.799 353.085 731.446 353.085 732.093ZM349.967 732.093C349.967 732.417 349.967 733.064 350.279 733.064C350.591 733.387 350.591 733.387 351.214 733.387C351.838 733.387 352.149 733.064 352.149 732.093C352.149 731.123 351.838 730.799 351.214 730.799C350.903 730.799 350.591 730.799 350.279 731.123C349.967 731.446 349.967 731.77 349.967 732.093Z" fill="white"/>
<path d="M357.449 734.357H356.202L354.332 731.123C354.332 731.77 354.332 732.093 354.332 732.417V734.357H353.397V730.152H354.644L356.514 733.387C356.514 732.74 356.514 732.417 356.514 732.093V730.152H357.449V734.357Z" fill="white"/>
<path d="M351.527 775.111L350.903 773.817L353.709 771.877V765.731H350.28V764.114H354.956V772.524L351.527 775.111Z" fill="#424242"/>
<path d="M325.652 775.111L322.222 772.524V764.114H327.211V765.731H323.469V771.877L326.587 773.817L325.652 775.111Z" fill="#424242"/>
<path d="M329.081 791.283H326.587C325.652 791.283 324.716 790.313 324.716 789.343V785.461H330.639V789.343C330.951 790.313 330.328 791.283 329.081 791.283Z" fill="#424242"/>
<path d="M350.59 791.283H348.096C347.161 791.283 346.226 790.313 346.226 789.343V785.461H352.149V789.343C352.149 790.313 351.525 791.283 350.59 791.283Z" fill="#424242"/>
<path d="M352.149 766.702H325.028V784.491H352.149V766.702Z" fill="#EF5350"/>
<path d="M354.02 783.844H323.469V787.079H354.02V783.844Z" fill="#BDBDBD"/>
<path d="M345.291 783.844H332.198V777.052C332.198 775.758 333.445 774.464 334.692 774.464H342.797C344.044 774.464 345.291 775.758 345.291 777.052V783.844Z" fill="#424242"/>
<path d="M345.291 776.081H332.198V777.375H345.291V776.081Z" fill="#EF5350"/>
<path d="M345.291 778.669H332.198V779.963H345.291V778.669Z" fill="#EF5350"/>
<path d="M345.291 781.58H332.198V782.874H345.291V781.58Z" fill="#EF5350"/>
<path d="M348.721 782.874C349.926 782.874 350.903 781.86 350.903 780.61C350.903 779.359 349.926 778.346 348.721 778.346C347.516 778.346 346.539 779.359 346.539 780.61C346.539 781.86 347.516 782.874 348.721 782.874Z" fill="#FFCA28"/>
<path d="M349.976 775.758C349.976 776.728 349.353 777.375 348.418 777.375C347.483 777.375 346.859 776.728 346.859 775.758C346.859 774.788 347.483 774.141 348.418 774.141C349.353 774.141 349.976 774.788 349.976 775.758Z" fill="#FFCA28"/>
<path d="M330.951 780.61C330.951 781.904 330.016 782.874 328.769 782.874C327.522 782.874 326.587 781.904 326.587 780.61C326.587 779.316 327.522 778.346 328.769 778.346C330.016 778.346 330.951 779.316 330.951 780.61Z" fill="#FFCA28"/>
<path d="M330.025 775.758C330.025 776.728 329.402 777.375 328.466 777.375C327.531 777.375 326.907 776.728 326.907 775.758C326.907 774.788 327.531 774.141 328.466 774.141C329.402 774.141 330.025 774.788 330.025 775.758Z" fill="#FFCA28"/>
<path d="M348.721 766.378H328.77V771.553H348.721V766.378Z" fill="#FAFAFA"/>
<path d="M338.744 744.707C324.404 744.707 317.234 750.206 317.234 750.206V767.672H360.566V750.206C360.255 750.206 350.902 744.707 338.744 744.707Z" fill="#FFB74D"/>
<path d="M357.138 750.206H320.352V751.5H357.138V750.206Z" fill="#FAFAFA"/>
<path d="M357.137 753.764H320.352V755.057H357.137V753.764Z" fill="#FAFAFA"/>
<path d="M357.137 757.322H320.352V758.615H357.137V757.322Z" fill="#FAFAFA"/>
<path d="M357.137 760.88H320.352V762.173H357.137V760.88Z" fill="#FAFAFA"/>
</svg>
