<svg width="57" height="83" viewBox="0 0 57 83" fill="none" xmlns="http://www.w3.org/2000/svg">
<path d="M57 77C57 80.312 44.2565 83 28.5 83C12.7929 83 0 80.312 0 77C0 73.688 12.7435 71 28.5 71C44.2565 71 57 73.64 57 77Z" fill="black" fill-opacity="0.15"/>
<path d="M47.5766 7.86292C41.1032 1.34687 31.4929 -1.40992 22.5796 0.695266C15.7577 2.29922 9.73255 6.65996 6.04773 12.6247C4.15553 15.6321 2.91066 19.0405 2.31313 22.5992C1.71559 26.4587 2.01436 30.3684 2.86087 34.1276C4.40451 41.2451 7.64117 47.9617 11.326 54.2271C14.5626 59.6906 18.1977 64.8533 22.1812 69.7654C23.3763 71.2691 24.6212 72.7227 25.8661 74.1763C26.5134 74.9281 27.3599 76.081 28.306 76.4318C28.4554 76.4819 28.7044 76.5822 28.8537 76.5822C29.0529 76.5822 29.3517 76.4819 29.5509 76.3817C30.0488 76.1812 30.497 75.7802 30.8455 75.4294C31.0447 75.2289 31.1941 75.0284 31.3933 74.8279C32.439 73.6249 33.4846 72.3718 34.4805 71.1689C38.2649 66.4573 41.8004 61.5452 44.9374 56.4326C48.7716 50.2173 52.1079 43.5508 54.0001 36.4333C55.0458 32.5738 55.6433 28.5138 55.2948 24.5039C54.9462 20.2935 53.5519 16.1834 51.3112 12.6247C50.2655 10.8703 49.0206 9.3165 47.5766 7.86292Z" fill="white"/>
<path d="M44.9727 10.7758C39.3943 5.16066 31.1126 2.78501 23.4317 4.59914C17.5529 5.98134 12.3608 9.73919 9.18538 14.8792C7.55479 17.4709 6.48203 20.408 5.9671 23.4748C5.45218 26.8007 5.70964 30.1698 6.43912 33.4093C7.76934 39.5429 10.5585 45.3308 13.7339 50.73C16.5231 55.4381 19.6555 59.8871 23.0884 64.1201C24.1182 65.4159 25.191 66.6685 26.2637 67.9211C26.8216 68.569 27.5511 69.5625 28.3664 69.8648C28.4951 69.908 28.7096 69.9944 28.8384 69.9944C29.01 69.9944 29.2675 69.908 29.4391 69.8216C29.8682 69.6489 30.2544 69.3033 30.5548 69.001C30.7264 68.8282 30.8552 68.6554 31.0268 68.4826C31.9279 67.446 32.829 66.3661 33.6873 65.3295C36.9484 61.2693 39.9951 57.0363 42.6984 52.6305C46.0025 47.2745 48.8776 41.5298 50.5081 35.3963C51.4093 32.0703 51.9242 28.5716 51.6238 25.1162C51.3234 21.4879 50.122 17.946 48.191 14.8792C47.2899 13.3675 46.2171 12.0285 44.9727 10.7758ZM42.6126 32.2863C40.1667 38.9381 33.1723 43.0847 26.2208 41.8753C20.9428 40.9682 16.4373 37.0808 14.7208 31.984C12.9615 26.7575 14.2488 20.84 18.0249 16.8662C22.0585 12.59 28.4093 11.1214 33.9018 13.1947C40.4671 15.6999 44.5007 22.7405 43.2992 29.7379C43.1275 30.6018 42.913 31.4656 42.6126 32.2863C42.4839 32.6319 43.1705 30.6881 42.6126 32.2863Z" fill="#CD2007"/>
<path d="M51.7089 27.1467C51.7089 33.0642 49.6921 38.8954 47.2033 44.2082C44.8432 49.2619 41.9253 54.0132 38.7499 58.5485C36.5615 61.6585 34.2443 64.682 31.7555 67.576C31.3264 68.0511 30.9402 68.5263 30.5111 69.0014C30.2108 69.347 29.8675 69.6493 29.4384 69.8221C29.3096 69.8653 28.7947 70.1244 28.666 69.9517C28.6231 69.8653 28.666 69.4765 28.666 69.3901C28.666 66.5394 28.666 63.6886 28.666 60.8378C28.666 56.8208 28.666 52.8038 28.666 48.7867C28.666 47.275 28.666 45.7632 28.666 44.2514C28.666 43.7763 28.666 43.3011 28.666 42.826C28.666 42.6964 28.5802 42.2645 28.666 42.1349C28.7518 42.0053 29.61 42.0485 29.8246 42.0485C30.7257 41.9621 31.6268 41.8326 32.485 41.5734C34.2014 41.0983 35.8749 40.3208 37.3339 39.2409C40.2947 37.0812 42.3973 33.7985 43.1268 30.2134C43.8992 26.4988 43.2126 22.525 41.1958 19.3286C39.4794 16.521 36.819 14.3613 33.7294 13.2383C32.8712 12.936 32.013 12.6768 31.1548 12.5472C30.7686 12.4608 30.3395 12.4176 29.9104 12.3744C29.6958 12.3744 29.4384 12.3312 29.2238 12.3312C29.1809 12.3312 28.666 12.3744 28.6231 12.3312C28.5802 12.288 28.6231 11.9857 28.6231 11.9425C28.6231 11.6401 28.6231 11.2946 28.6231 10.9922C28.6231 9.09171 28.6231 7.19119 28.6231 5.29066C28.6231 4.90192 28.6231 4.46998 28.6231 4.08124C33.7723 4.08124 38.7929 5.85218 42.8264 9.00532C46.3022 11.7265 48.9626 15.4844 50.3787 19.6742C51.3227 22.0498 51.7089 24.5983 51.7089 27.1467Z" fill="#A81A13"/>
<path d="M28.7088 9.48047C21.3712 9.48047 14.6771 14.2318 12.1883 21.1428C9.65661 28.097 11.888 36.131 17.5521 40.8391C23.2163 45.5904 31.498 46.1951 37.8059 42.3509C44.1137 38.5067 47.4607 30.9046 45.9589 23.6048C44.457 16.4779 38.5783 10.8195 31.4551 9.65324C30.554 9.52366 29.61 9.48047 28.7088 9.48047ZM42.1827 33.2802C39.3077 39.6729 32.1846 43.258 25.4047 41.703C20.2126 40.4936 15.9215 36.3902 14.4626 31.2069C12.9607 25.8941 14.5913 20.1061 18.582 16.3051C22.873 12.2017 29.3954 11.1218 34.7592 13.5839C41.2387 16.521 44.8003 23.864 43.0409 30.775C42.8264 31.6388 42.5689 32.5027 42.1827 33.2802C42.0111 33.7121 42.3544 32.9779 42.1827 33.2802Z" fill="#A81A13"/>
<path d="M23.7227 19.578H30.7187V35H26.6927V22.878H23.7227V19.578Z" fill="#504D56"/>
</svg>
