<svg width="63" height="41" viewBox="0 0 63 41" fill="none" xmlns="http://www.w3.org/2000/svg">
<path d="M18.3509 12.8H2.64062V40.1H18.3509V12.8Z" fill="#F4511E"/>
<path d="M18.3509 12.8H2.64062V14H18.3509V12.8Z" fill="#D84315"/>
<path d="M18.3508 12.8H2.64056L1.86951 10.3H18.3508V12.8Z" fill="#BF360C"/>
<path d="M9.38745 16.2H4.47192V23.2H9.38745V16.2Z" fill="#FDD835"/>
<path d="M8.71267 16.8H5.14661V22.5H8.71267V16.8Z" fill="#00838F"/>
<path d="M9.38745 18.5H4.47192V19.1H9.38745V18.5Z" fill="#FDD835"/>
<path d="M9.86921 22.2H3.89355V23.2H9.86921V22.2Z" fill="#FDD835"/>
<path d="M16.5194 16.2H11.6039V23.2H16.5194V16.2Z" fill="#FDD835"/>
<path d="M15.8446 16.8H12.2786V22.5H15.8446V16.8Z" fill="#00838F"/>
<path d="M16.5194 18.5H11.6039V19.1H16.5194V18.5Z" fill="#FDD835"/>
<path d="M17.0013 22.2H11.0256V23.2H17.0013V22.2Z" fill="#FDD835"/>
<path d="M9.38745 26.8H4.47192V33.8H9.38745V26.8Z" fill="#FDD835"/>
<path d="M8.71267 27.5H5.14661V33.2H8.71267V27.5Z" fill="#00838F"/>
<path d="M9.38745 29.1H4.47192V29.7001H9.38745V29.1Z" fill="#FDD835"/>
<path d="M9.86921 32.9H3.89355V33.9H9.86921V32.9Z" fill="#FDD835"/>
<path d="M16.5194 26.8H11.6039V33.8H16.5194V26.8Z" fill="#FDD835"/>
<path d="M15.8446 27.5H12.2786V33.2H15.8446V27.5Z" fill="#445963"/>
<path d="M16.5194 29.1H11.6039V29.7001H16.5194V29.1Z" fill="#FDD835"/>
<path d="M17.0013 32.9H11.0256V33.9H17.0013V32.9Z" fill="#FDD835"/>
<path d="M44.1565 40.0765H59.8667V12.7765L44.1565 12.7765V40.0765Z" fill="#F4511E"/>
<path d="M44.1565 14.0056L59.8667 14.0056V12.8056L44.1565 12.8056V14.0056Z" fill="#D84315"/>
<path d="M44.1815 12.8H59.8918L60.6628 10.3H44.1815V12.8Z" fill="#BF360C"/>
<path d="M53.1279 23.2163H58.0433V16.2163H53.1279V23.2163Z" fill="#FDD835"/>
<path d="M53.8026 22.6165H57.3687V16.9164H53.8026V22.6165Z" fill="#445963"/>
<path d="M53.1279 19.0518H58.0433V18.4518H53.1279V19.0518Z" fill="#FDD835"/>
<path d="M52.6459 23.2441H58.6215V22.2441H52.6459V23.2441Z" fill="#FDD835"/>
<path d="M45.9801 23.2163H50.8958V16.2163H45.9801V23.2163Z" fill="#FDD835"/>
<path d="M46.655 22.6165H50.2211V16.9164H46.655V22.6165Z" fill="#00838F"/>
<path d="M45.9801 19.0518H50.8958V18.4518H45.9801V19.0518Z" fill="#FDD835"/>
<path d="M45.4984 23.2441H51.474V22.2441H45.4984V23.2441Z" fill="#FDD835"/>
<path d="M53.1279 33.8969H58.0433V26.8969H53.1279V33.8969Z" fill="#FDD835"/>
<path d="M53.8026 33.197H57.3687V27.4969H53.8026V33.197Z" fill="#445963"/>
<path d="M53.1279 29.7324H58.0433V29.1324H53.1279V29.7324Z" fill="#FDD835"/>
<path d="M52.6459 33.8247H58.6215V32.8247H52.6459V33.8247Z" fill="#FDD835"/>
<path d="M45.9801 33.897H50.8958V26.897H45.9801V33.897Z" fill="#FDD835"/>
<path d="M46.655 33.1971H50.2211V27.497H46.655V33.1971Z" fill="#00838F"/>
<path d="M45.9801 29.7325H50.8958V29.1324H45.9801V29.7325Z" fill="#FDD835"/>
<path d="M45.4984 33.8247H51.474V32.8247H45.4984V33.8247Z" fill="#FDD835"/>
<path d="M44.3737 2.70001H18.158V3.90002H44.3737V2.70001Z" fill="#D84315"/>
<path d="M44.3737 2.70001H18.1579L17.3868 0.299988H45.1448L44.3737 2.70001Z" fill="#BF360C"/>
<path d="M62.2042 37.9H0.423706V40.1H62.2042V37.9Z" fill="#E64A19"/>
<path d="M44.3737 4H18.158V40.1H44.3737V4Z" fill="#FF7043"/>
<path d="M25.483 11H19.9893V21.6H25.483V11Z" fill="#FDD835"/>
<path d="M24.9048 11.6H20.5676V21.1H24.9048V11.6Z" fill="#00838F"/>
<path d="M25.483 13.1H19.9893V13.6H25.483V13.1Z" fill="#FDD835"/>
<path d="M25.9649 20.8H19.5073V21.7H25.9649V20.8Z" fill="#FDD835"/>
<path d="M23.0735 13.3H22.4952V21.1H23.0735V13.3Z" fill="#FDD835"/>
<path d="M33.9644 11H28.4707V21.6H33.9644V11Z" fill="#FDD835"/>
<path d="M33.4826 11.6H29.1454V21.1H33.4826V11.6Z" fill="#00838F"/>
<path d="M33.9644 13.1H28.4707V13.6H33.9644V13.1Z" fill="#FDD835"/>
<path d="M34.4463 20.8H27.9888V21.7H34.4463V20.8Z" fill="#FDD835"/>
<path d="M31.555 13.3H30.9767V21.1H31.555V13.3Z" fill="#FDD835"/>
<path d="M42.5426 11H37.0488V21.6H42.5426V11Z" fill="#FDD835"/>
<path d="M41.9644 11.6H37.6272V21.1H41.9644V11.6Z" fill="#445963"/>
<path d="M42.5426 13.1H37.0488V13.6H42.5426V13.1Z" fill="#FDD835"/>
<path d="M43.0245 20.8H36.5669V21.7H43.0245V20.8Z" fill="#FDD835"/>
<path d="M40.0366 13.3H39.4584V21.1H40.0366V13.3Z" fill="#FDD835"/>
<path d="M39.5547 38.4H23.0735V40.1H39.5547V38.4Z" fill="#875E51"/>
<path d="M38.1087 36.7H24.3262V38.4H38.1087V36.7Z" fill="#A1887F"/>
<path d="M36.8559 35H25.6755V36.7H36.8559V35Z" fill="#875E51"/>
<path d="M31.2658 23.6C28.6634 23.6 26.6394 25.8 26.6394 28.4V35.3H35.8921V28.4C35.8921 25.7 33.8681 23.6 31.2658 23.6Z" fill="#875E51"/>
<path d="M31.2657 24.1C28.9526 24.1 27.1213 26 27.1213 28.4V34.8H35.4102V28.4C35.4102 26 33.5789 24.1 31.2657 24.1Z" fill="#A1887F"/>
<path d="M41.0968 8.90002H38.591C38.3982 8.90002 38.2054 8.70003 38.2054 8.50002V7.29999C38.2054 6.39997 38.9765 5.59998 39.8439 5.59998C40.7113 5.59998 41.4824 6.39997 41.4824 7.29999V8.50002C41.386 8.80003 41.2896 8.90002 41.0968 8.90002Z" fill="#FDD835"/>
<path d="M41.0968 8.59998H38.5909V7.39996C38.5909 6.69996 39.1692 6.09998 39.8439 6.09998C40.5185 6.09998 41.0968 6.69996 41.0968 7.39996V8.59998Z" fill="#00838F"/>
<path d="M41.7716 8.39996H37.9163V8.89996H41.7716V8.39996Z" fill="#FDD835"/>
<path d="M39.9404 5.90002H39.6512V8.5H39.9404V5.90002Z" fill="#FDD835"/>
<path d="M24.0373 8.90002H21.5314C21.3386 8.90002 21.1459 8.70003 21.1459 8.50002V7.29999C21.1459 6.39997 21.9169 5.59998 22.7844 5.59998C23.6518 5.59998 24.4228 6.39997 24.4228 7.29999V8.50002C24.3264 8.80003 24.2301 8.90002 24.0373 8.90002Z" fill="#FDD835"/>
<path d="M24.0374 8.59998H21.5314V7.39996C21.5314 6.69996 22.1097 6.09998 22.7844 6.09998C23.4591 6.09998 24.0374 6.69996 24.0374 7.39996V8.59998Z" fill="#00838F"/>
<path d="M24.7119 8.39996H20.8567V8.89996H24.7119V8.39996Z" fill="#FDD835"/>
<path d="M22.8808 5.90002H22.5917V8.5H22.8808V5.90002Z" fill="#FDD835"/>
<path d="M37.1452 6H25.3867V8.79999H37.1452V6Z" fill="#D84315"/>
<path d="M27.0249 8.40002V6.79999H27.3141V8.20004H27.9888V8.40002H27.0249Z" fill="white"/>
<path d="M28.278 8.40002V6.79999H28.5671V8.40002H28.278Z" fill="white"/>
<path d="M28.8562 6.79999H29.3382C29.5309 6.79999 29.7237 6.79999 29.8201 6.89999C29.9165 6.99999 29.9165 7.10001 29.9165 7.20001C29.9165 7.30001 29.9165 7.39999 29.8201 7.39999C29.8201 7.49999 29.7237 7.5 29.6273 7.5C29.7237 7.5 29.8201 7.60001 29.9165 7.60001C30.0129 7.70001 30.0129 7.69999 30.0129 7.89999C30.0129 7.99999 29.9165 8.20001 29.8201 8.20001C29.7237 8.30001 29.6273 8.29999 29.4345 8.29999H28.8562V6.79999ZM29.1454 7.39999H29.4345C29.5309 7.39999 29.6273 7.39999 29.6273 7.29999C29.7237 7.29999 29.7237 7.20001 29.7237 7.10001C29.7237 7.00001 29.7237 6.99999 29.6273 6.89999C29.5309 6.89999 29.5309 6.79999 29.3382 6.79999H29.1454V7.39999ZM29.1454 7.60001V8.10001H29.4345C29.5309 8.10001 29.6273 8.1 29.7237 8C29.8201 8 29.8201 7.89999 29.8201 7.79999C29.8201 7.69999 29.8201 7.70001 29.7237 7.60001C29.6273 7.60001 29.6273 7.5 29.4345 7.5H29.1454V7.60001Z" fill="white"/>
<path d="M30.5911 7.70001V8.29999H30.302V6.70001H30.7839C30.9767 6.70001 31.1694 6.69999 31.2658 6.79999C31.3622 6.89999 31.4586 7.00001 31.4586 7.20001C31.4586 7.40001 31.3622 7.50001 31.1694 7.60001L31.6513 8.29999H31.3622L30.9767 7.70001H30.5911ZM30.5911 7.5H30.7839C30.8803 7.5 30.9767 7.49999 31.073 7.39999C31.1694 7.39999 31.1694 7.30001 31.1694 7.20001C31.1694 7.10001 31.1694 7 31.073 7C30.9767 7 30.9767 6.89999 30.7839 6.89999H30.5911V7.5Z" fill="white"/>
<path d="M32.7116 8.40002L32.5188 8.00002H31.9405L31.7478 8.40002H31.4586L32.0369 6.79999H32.3261L32.9044 8.40002H32.7116ZM32.5188 7.70003L32.3261 7.3V7.20002C32.3261 7.10002 32.3261 7.10001 32.3261 7.10001C32.3261 7.20001 32.3261 7.3 32.2297 7.40001L32.1333 7.80001H32.5188V7.70003Z" fill="white"/>
<path d="M33.4823 7.70001V8.29999H33.1931V6.70001H33.675C33.8678 6.70001 34.0606 6.69999 34.157 6.79999C34.2533 6.89999 34.3497 7.00001 34.3497 7.20001C34.3497 7.40001 34.2533 7.50001 34.0606 7.60001L34.5425 8.29999H34.2533L33.8678 7.70001H33.4823ZM33.4823 7.5H33.675C33.7714 7.5 33.8678 7.49999 33.9642 7.39999C34.0606 7.39999 34.0606 7.30001 34.0606 7.20001C34.0606 7.10001 34.0606 7 33.9642 7C33.8678 7 33.8678 6.89999 33.675 6.89999H33.4823V7.5Z" fill="white"/>
<path d="M35.0248 7.50001L35.4103 6.79999H35.6994L35.2175 7.80001V8.40002H34.9284V7.80001L34.4465 6.79999H34.7357L35.0248 7.50001Z" fill="white"/>
<path d="M31.4585 23.9H30.9766V35.2H31.4585V23.9Z" fill="#8D6E63"/>
<path d="M33.2899 31.3C33.2899 31.6 33.0971 31.8 32.808 31.8C32.5188 31.8 32.326 31.6 32.326 31.3C32.326 31 32.5188 30.8 32.808 30.8C33.0971 30.8 33.2899 31 33.2899 31.3Z" fill="#FDD835"/>
<path d="M29.7236 31.8C29.9897 31.8 30.2054 31.5761 30.2054 31.3C30.2054 31.0238 29.9897 30.8 29.7236 30.8C29.4574 30.8 29.2417 31.0238 29.2417 31.3C29.2417 31.5761 29.4574 31.8 29.7236 31.8Z" fill="#FDD835"/>
<path d="M43.4102 38.7H40.615V40.1H43.4102V38.7Z" fill="#445963"/>
<path d="M42.8318 37.3H41.2897V38.7H42.8318V37.3Z" fill="#445963"/>
<path d="M43.5064 28.7H40.615V28.9H43.5064V28.7Z" fill="#875E51"/>
<path d="M41.3861 31.8H42.639L43.2173 28.8H40.9042L41.3861 31.8Z" fill="#FFB74D"/>
<path d="M42.8348 31.9H41.2928L40.7145 28.7H43.3167L42.8348 31.9ZM41.4855 31.6H42.5457L43.0276 28.9H41.0036L41.4855 31.6Z" fill="#445963"/>
<path d="M41.5789 31.8L41.3861 28.9L41.6752 28.8L41.868 31.8H41.5789Z" fill="#445963"/>
<path d="M42.4463 31.8H42.2535L42.4463 28.8L42.7355 28.9L42.4463 31.8Z" fill="#445963"/>
<path d="M43.1211 28.8C42.9283 28.4 42.4464 28.1 41.9645 28.1C41.4826 28.1 41.097 28.4 40.8079 28.8H43.1211Z" fill="#445963"/>
<path d="M42.8318 28.7C42.639 28.4 42.3499 28.2 42.0607 28.2C41.6752 28.2 41.3861 28.4 41.2897 28.7H42.8318Z" fill="#A1887F"/>
<path d="M42.1571 27.6H41.9644V28.1H42.1571V27.6Z" fill="#445963"/>
<path d="M42.2536 27.6C42.2536 27.8 42.1572 27.9 42.0608 27.9C41.9644 27.9 41.868 27.8 41.868 27.6C41.868 27.4 42.0608 27.2 42.0608 27.2C42.0608 27.2 42.2536 27.5 42.2536 27.6Z" fill="#445963"/>
<path d="M42.5429 31.8H41.4825V32.2H42.5429V31.8Z" fill="#445963"/>
<path d="M42.3499 32H41.7716V32.4H42.3499V32Z" fill="#445963"/>
<path d="M42.2536 31.9H41.868V38.7H42.2536V31.9Z" fill="#445963"/>
<path d="M21.917 38.7H19.1218V40.1H21.917V38.7Z" fill="#445963"/>
<path d="M21.3386 37.3H19.7965V38.7H21.3386V37.3Z" fill="#445963"/>
<path d="M22.0133 28.7H19.1218V28.9H22.0133V28.7Z" fill="#445963"/>
<path d="M21.1458 31.8H19.8929L19.411 28.8H21.724L21.1458 31.8Z" fill="#FFB74D"/>
<path d="M21.3386 31.9H19.8929L19.3146 28.7H21.9168L21.3386 31.9ZM19.9892 31.6H21.0494L21.5313 28.9H19.5073L19.9892 31.6Z" fill="#445963"/>
<path d="M20.0857 31.8L19.8929 28.9L20.1821 28.8L20.3748 31.8H20.0857Z" fill="#445963"/>
<path d="M20.9531 31.8H20.7604L20.9531 28.8L21.2422 28.9L20.9531 31.8Z" fill="#445963"/>
<path d="M21.6277 28.8C21.435 28.4 20.9531 28.1 20.4712 28.1C19.9893 28.1 19.6037 28.4 19.3146 28.8H21.6277Z" fill="#445963"/>
<path d="M21.3386 28.7C21.1458 28.4 20.8567 28.2 20.5675 28.2C20.182 28.2 19.8929 28.4 19.7965 28.7H21.3386Z" fill="#A1887F"/>
<path d="M20.664 27.6H20.4712V28.1H20.664V27.6Z" fill="#445963"/>
<path d="M20.7604 27.6C20.7604 27.8 20.664 27.9 20.5676 27.9C20.4712 27.9 20.3749 27.8 20.3749 27.6C20.3749 27.4 20.5676 27.2 20.5676 27.2C20.5676 27.2 20.7604 27.5 20.7604 27.6Z" fill="#445963"/>
<path d="M21.0494 31.8H19.9893V32.2H21.0494V31.8Z" fill="#445963"/>
<path d="M20.8567 32H20.2784V32.4H20.8567V32Z" fill="#445963"/>
<path d="M20.7604 31.9H20.3749V38.7H20.7604V31.9Z" fill="#445963"/>
</svg>
