<svg width="224" height="103" viewBox="0 0 224 103" fill="none" xmlns="http://www.w3.org/2000/svg">
<rect x="16.4258" y="86.9718" width="191.047" height="15.5957" rx="7.79784" fill="black" fill-opacity="0.1"/>
<path d="M173.338 54.2882L35.2271 52.2268L52.405 0.692932L147.227 1.38004L173.338 54.2882Z" fill="#FFCA28"/>
<path d="M165.098 58.4113L44.1655 56.3499L59.2822 9.62585L142.423 11.0001L165.098 58.4113Z" fill="#B2EBF2"/>
<path d="M167.844 59.785L41.4143 57.7237L57.218 7.56403L143.108 8.93827L167.844 59.785ZM46.224 54.9752L162.347 56.3494L141.047 12.3739L59.9664 10.9996L46.224 54.9752Z" fill="#504D56"/>
<path d="M223.502 80.399L1.56299 76.9634V63.9081C1.56299 49.4786 13.9313 37.7976 28.3608 37.7976L197.392 40.5461C211.821 40.5461 223.502 52.9142 223.502 67.3437V80.399Z" fill="#FFCA28"/>
<path d="M222.874 71.6843L0.956787 68.4933L0.828355 77.4249L222.745 80.616L222.874 71.6843Z" fill="#FB6900"/>
<path d="M75.7659 76.9636H62.7107C62.7107 70.0924 57.2136 64.5954 50.3425 64.5954C43.4713 64.5954 37.9744 70.0924 37.9744 76.9636H24.9192C24.9192 63.2212 36.6001 51.5402 50.3425 52.2273C64.7719 51.5402 75.7659 62.5341 75.7659 76.9636Z" fill="#FB6900"/>
<path d="M68.8964 76.2761C68.8964 86.5829 60.6509 94.8283 50.3441 94.8283C40.0373 94.8283 31.792 86.5829 31.792 76.2761C31.792 65.9693 40.0373 57.7239 50.3441 57.7239C61.338 57.7239 68.8964 66.6564 68.8964 76.2761Z" fill="#504D56"/>
<path d="M50.3439 96.8893C39.35 96.8893 29.7304 87.2697 30.4175 76.2758C30.4175 65.2819 40.0372 55.6622 51.0311 56.3493C62.025 56.3493 71.6446 65.969 70.9575 76.9629C70.9575 87.9568 61.3378 96.8893 50.3439 96.8893ZM51.0311 59.7849C42.0985 59.7849 34.5402 67.3432 33.8531 76.2758C33.8531 85.2083 41.4114 92.7666 50.3439 93.4537C59.2764 93.4537 66.8348 85.8954 67.5219 76.9629C67.5219 67.3432 59.9636 59.7849 51.0311 59.7849Z" fill="#504D56"/>
<path d="M64.7725 76.2758C64.7725 83.8341 58.5884 90.0182 50.343 90.0182C42.7847 90.0182 36.6006 83.8341 36.6006 75.5887C36.6006 68.0304 42.7847 61.8463 51.0301 61.8463C58.5884 62.5334 64.7725 68.7175 64.7725 76.2758Z" fill="#ECEFF1"/>
<path d="M59.9578 76.2757C59.9578 81.7727 55.8351 85.8954 50.3382 85.2082C44.8412 85.2082 40.7186 81.0855 41.4057 75.5886C41.4057 70.0916 45.5284 65.9689 51.0254 66.656C55.8352 67.3432 59.9578 71.4659 59.9578 76.2757Z" fill="#504D56"/>
<path d="M199.447 78.3371H186.391C186.391 71.4659 180.894 65.9689 174.023 65.9689C167.152 65.9689 161.655 71.4659 161.655 78.3371H148.6C148.6 64.5947 160.281 52.9137 174.023 53.6008C188.453 52.9137 199.447 64.5947 199.447 78.3371Z" fill="#FB6900"/>
<path d="M192.577 78.3375C192.577 88.6443 184.332 96.8897 174.025 96.8897C163.718 96.8897 155.473 88.6443 155.473 78.3375C155.473 68.0307 163.718 59.7853 174.025 59.7853C184.332 59.7853 192.577 68.0307 192.577 78.3375Z" fill="#504D56"/>
<path d="M173.342 98.2637C162.348 98.2637 152.728 88.6441 153.415 77.6502C153.415 66.6563 163.035 57.0366 174.029 57.7237C185.023 57.7237 194.642 67.3434 193.955 78.3373C193.955 89.3312 185.023 98.9509 173.342 98.2637ZM174.029 61.1593C165.096 61.1593 157.538 68.7176 156.851 77.6502C156.851 86.5827 164.409 94.141 173.342 94.8281C182.274 94.8281 189.833 87.2698 190.52 78.3373C190.52 69.4047 182.961 61.8464 174.029 61.1593Z" fill="#504D56"/>
<path d="M187.764 78.337C187.764 85.8953 181.58 92.0794 173.335 92.0794C165.776 92.0794 159.592 85.8953 159.592 77.6499C159.592 70.0916 165.776 63.9075 174.022 63.9075C181.58 63.9075 187.764 70.7787 187.764 78.337Z" fill="#ECEFF1"/>
<path d="M182.956 78.3369C182.956 83.8339 178.833 87.9566 173.336 87.2695C167.84 87.2695 163.717 83.1468 164.404 77.6498C164.404 72.1529 168.527 68.0301 174.024 68.7173C178.833 68.7173 182.956 72.84 182.956 78.3369Z" fill="#504D56"/>
<path d="M103.942 10.3129L103.254 39.859L103.942 10.3129Z" fill="#504D56"/>
<path d="M102.203 10.5982L101.785 40.1412L105.221 40.1898L105.638 10.6467L102.203 10.5982Z" fill="#504D56"/>
<path d="M121.262 66.0084H130.195V57.0759H121.262V66.0084Z" fill="#504D56"/>
<path d="M112.628 56.6695H121.561V47.737H112.628V56.6695Z" fill="#504D56"/>
<path d="M103.288 66.0084H112.221V57.0759H103.288V66.0084Z" fill="#504D56"/>
<path d="M93.9694 56.6695H102.902V47.737H93.9694V56.6695Z" fill="#504D56"/>
<path d="M84.633 66.0085H93.5657V57.0759H84.633V66.0085Z" fill="#504D56"/>
</svg>
